<svg height="230.344" viewBox="-0.736 -0.5 512 454" width="328.75" xmlns="http://www.w3.org/2000/svg"><path d="M197.762.07c-.68 0-1.352.077-2.023.183-5.086.707-10.2 2.002-15.144 3.556-4.52 1.553-8.772 3.942-12.445 7.05s-6.04 7.31-7.17 11.83c-.99 4.098-.99 8.228 0 12.324.987 3.672 3.102 7.02 6.068 9.564 1.554 1.27 2.684 2.865 3.25 4.843.847 2.685 1.684 5.367 2.39 7.91 1.836 6.92 5.65 13.117 11.158 17.778 2.4 2.12 5.66 2.852 8.766 2.146.283-.14.576-.184.86-.184.988 0 1.947.44 2.512 1.287s.98 1.832.98 2.82c0 .707-.084 1.397-.367 1.962-.706 1.694-1.292 3.435-1.716 5.27-.988 4.52-1.447 9.195-1.164 13.857s1.725 9.164 3.985 13.12l10.607 18.084 7.786 16.677c.847 1.27 1.27 2.807 1.41 6.62 0 2.26.122 4.346.122 5.334v3.864c0 6.356-.317 12.403-1.164 18.76-.564 4.802-.962 9.604-1.103 14.406-.282 6.215-.557 12.305-.98 18.944-.283 4.52-1.163 9.15-2.576 13.67-.422 1.555-1.24 3.144-2.512 4.415L197.7 247.01l-7.356 6.5c-12.57 5.65-24.583 12.59-35.74 20.782l-9.136 6.62-4.843 5.212-8.767 7.356-7.173-2.82c-16.102 10.312-32.78 19.77-50.577 28.385l-3.985 1.962c-5.79-5.226-12.25-9.588-19.312-13.12-3.812-1.836-7.9-3.406-12.137-4.536-8.193-2.118-16.807.572-22.316 6.928-4.096 4.662-7.78 9.88-10.606 15.388-1.27 2.4-3.115 4.393-5.516 5.947-1.978 1.13-3.84 2.72-5.395 4.414-3.956 4.096-7.292 8.482-10.117 13.426-2.825 4.66-6.093 9.127-9.625 13.365-1.836 2.118-3.516 4.403-5.21 6.805-1.696 2.542-3.39 5.37-4.66 8.337l-5.272 11.464-1.41 2.39c-.707.425-1.25.804-1.533 1.228-2.26 3.672-4.526 7.202-6.927 11.157-3.532 5.79-6.483 12.176-8.46 18.39-2.684 7.63-5.116 15.534-7.235 23.727l-1.41 5.64h644.94v-11.832l-71.604-.307c-3.25-.565-6.512-1.99-9.196-4.107-14.125-11.582-25.27-26.27-32.615-43.22-1.13-2.543-2.95-4.638-5.21-6.192-2.826-1.836-6.07-2.82-9.32-2.82-2.542-.14-5.067.714-6.62 2.268-.99.706-1.997 1.525-3.127 2.514-4.238 3.672-8.912 6.757-13.855 9.44l-5.64 3.127-5.21 2.27c-1.273.705-2.28 1.542-3.128 2.39-1.13 1.27-1.674 2.84-1.533 4.536 0 1.837.27 3.823.552 5.518.14.425.123.68.123 1.104 0 1.554-.69 3.12-1.962 4.108l-8.338 6.805-1.41.123c-3.39 0-6.234-2.68-6.376-6.07l-.244-9.318.552-19.496.43-21.028-.308-18.39c0-1.273.184-2.513.184-3.925 0-4.52-.458-9.354-1.164-13.733-.99-6.92-1.533-13.843-1.533-20.905 0-4.66.293-9.44.858-14.1l1.533-15.266.858-12.752-.306-13.978.55-16.062-.244-33.657-1.84-40.83c.142-.988.85-1.636 1.84-1.777 1.978-.283 3.823-.893 5.518-2.023 2.118-1.27 4.214-2.8 6.192-4.353 2.118-1.695 3.25-4.366 3.25-7.05 0-1.695-.422-3.43-1.41-4.843-2.12-3.39-4.95-6.177-8.34-8.154-1.694-.99-3.264-2.266-4.535-3.678-4.943-5.227-8.04-11.748-8.89-17.963-1.41-9.465-2.505-18.896-3.493-29.49-.424-3.672-1.328-7.38-2.882-10.912-1.27-3.107-3.49-5.643-6.314-7.48-1.835-1.27-3.846-2.364-5.823-3.494-19.493-11.44-40.914-19.09-63.513-22.622-4.38-.706-8.92-.455-12.875.675-7.204 2.118-14.254 4.097-21.458 6.498-3.53 1.13-7.344 1.863-11.158 2.146-4.66.425-9.194.974-13.855 1.963-1.13.282-2.285.43-3.557.43-1.553 0-3.246-.252-4.66-.676-2.347-.74-4.378-2.154-4.658-2.207-1.684-2.528-3.263-5.028-5.088-8.398-2.402-4.097-4.057-8.46-4.905-13.12-.282-1.977-.722-4.012-1.287-6.13-.707-3.25-1.69-6.5-2.82-9.748-1.13-3.39-3.14-6.342-5.825-8.46-2.542-2.26-5.475-4.068-8.582-5.763-1.8-.953-3.847-1.47-5.886-1.47zM327.915 89.82l6.928.122 6.07.736 9.5 1.84c.425.14.964.415 1.105.98l2.575 5.517 1.778 4.047 1.288 3.555 1.962 4.66 3.25 6.497 2.022 3.556 2.27 5.456 2.083 6.375 1.165 4.782.368 1.84c.14.282.184.697.184.98 0 1.977-1.7 3.678-3.68 3.678h-.12c-.708 0-1.564-.25-2.27-.674l-4.536-4.536-4.782-5.088-2.82-3.065-2.27-3.433-1.715-3.25c-1.273-2.683-2.568-5.328-3.557-8.153l-6.315-7.234-7.908-8.766-6.376-6.192c-.424-.424-.442-1.005.123-1.288l1.84-2.268c.423-.424 1.132-.674 1.838-.674zm-67.927 59.712c1.13 0 2.095.44 2.943 1.287l4.292 3.25 3.494 3.985c.99 1.13 1.533 2.51 1.533 3.924 0 .988-.086 1.99-.37 2.696-.422 1.695-.74 3.412-1.164 4.966-.423 2.966-1.383 5.77-2.513 8.03-1.695 3.25-3.436 6.36-5.272 9.75-1.13 2.118-2.388 4.213-3.8 6.19s-2.653 4.093-3.924 6.07c-1.695 2.4-3.252 4.79-5.088 7.05-2.402 3.25-4.96 6.377-7.786 9.625-.424.565-.968.736-1.533.736-.283 0-.473-.043-.614-.184-.565 0-.98-.54-.98-1.104-.142-.283-.123-.576-.123-.86 0-1.13.31-2.26.735-3.248l1.962-5.763 1.655-4.843c2.26-6.92 4.4-14.262 6.376-23.725.707-3.673 1.558-7.312 1.84-8.583.565-2.684.86-5.41.86-8.093.14-1.552.537-2.94 1.102-4.35l2.82-4.66c.706-1.272 2.143-2.146 3.556-2.146zM316.45 239.9c.857.045 1.695.362 2.33.92 1.837 1.41 3.053 3.624 3.618 5.884l.735 7.663.858 7.48 2.086 14.958c.424 3.673.736 7.198.736 10.73 0 3.39-.312 6.682-.736 9.93-.14 1.272-.123 2.53-.123 3.8 0 3.674.568 7.34 1.84 10.73.988 2.542 2.1 4.913 3.37 7.173 3.25 6.073 5.663 12.427 7.358 19.066 1.13 4.66 1.822 9.36 1.963 14.162.282 7.768 1.31 15.546 3.004 23.173.99 4.52 1.666 8.183 2.513 12.138.142.99 1.408 1.962 2.82 1.962.283 0 .576.018.86-.123l3.37.123c.707 0 1.453.58 1.595 1.287.988 3.39 1.41 6.787 1.41 10.177 0 3.25-.44 6.456-1.288 9.564-.706 3.107-2.98 5.51-5.947 6.498-2.542.848-5.224 1.557-7.908 1.84-2.543.423-4.665 2.257-5.088 4.66-.283 1.13-.43 2.137-.43 3.125v.124c0 2.4-1.56 4.278-3.678 4.843-2.12.706-4.38 1.085-6.498 1.226-3.25.283-6.48.723-9.87 1.288l-10.3.307-12.016-.552-9.564-1.594-6.13-1.41-9.32-1.838-6.314-1.226-7.663-1.47 17.412-11.833.797-.552 3.248-.98 6.5-1.594 12.628-7.48-.736-2.513c-.99-4.38-3.08-8.65-5.763-12.322-2.26-3.248-4.435-6.626-6.13-10.3-1.413-2.824-2.066-5.658-2.207-8.766-.565-9.746-2.3-19.454-4.843-29.06-2.967-10.45-6.486-21.204-10.3-31.94-1.977-5.225-2.948-10.155-3.372-14.958-.14-1.13-.325-2.303-.184-3.433 0-.706.313-1.397.737-1.962l3.8-3.555 4.538-3.494 4.23-3.8 5.21-4.66 3.25-3.432 14.284-15.51 1.84-2.392.857-1.287c.847-1.272 1.83-2.53 2.82-3.802.565-.706 1.133-1.17 1.84-1.594l5.762-3.495 4.23-1.533c.352-.142.727-.256 1.103-.307.28-.038.572-.076.858-.06zm-119.178 24.337l12.016 32.8.306 1.225.246 1.288 4.66 15.572 3.984 15.94 2.942 10.176 1.962 7.602 4.23 19.25 1.165 6.07c.706 3.107 2.093 5.936 4.353 8.337.847.847 1.83 1.538 2.82 1.962 2.4 1.27 4.98 1.838 7.663 1.838.423 0 .985.02 1.41-.123 1.835-.14 3.65.55 4.78 1.962 2.544 2.966 4.095 6.486 4.66 10.3v.55c0 .708-.146 1.398-.43 1.963l-5.21 8.338-.98 1.594-11.71 6.62c-.848.424-1.41 1.403-1.41 2.392v.43l.98 3.8-3.984-.86c-5.085-1.27-10.308-1.776-15.817-1.776-3.11 0-6.335.128-9.442.55-6.074.85-12.28 1.942-18.637 3.496-6.497 1.554-13.125 2.433-20.046 2.575-4.662.14-9.354-.447-13.733-1.718-1.835-.424-3.968-.986-5.946-1.41-4.096-.706-7.738-2.674-10.422-5.64-1.977-1.978-4.385-4.65-6.927-7.05l-6.376-9.074-3.496-5.64-3.862-5.517-3.372-4.904-5.333-8.215-2.575-4.106-3.68-7.48-2.696-5.946-1.84-3.68-1.532-2.94c-5.367-9.748-12.142-18.778-20.476-26.547l3.556-.735 9.747-2.084c6.64-1.412 12.975-3.385 19.19-6.068 5.368-2.26 9.452-3.946 13.55-5.64 4.942-1.978 9.904-5.223 14.283-9.32l6.928-5.823 5.886-5.948 3.862-3.25 4.353-3.248 4.11-2.943 5.087-3.126 3.678-1.96 3.924-1.963 4.106-2.022 4.414-2.207 3.25-1.716 2.942-1.84 2.82-1.532 6.07-2.575z"/><path d="M155.37 109.394l.43.648" stroke="#000" stroke-width=".216" fill="none"/></svg>