<svg viewBox="0 0 375.18466 282.97968" xmlns="http://www.w3.org/2000/svg" xmlns:xlink="http://www.w3.org/1999/xlink"><defs><filter id="d"><feGaussianBlur stdDeviation="1.687"/></filter><linearGradient gradientUnits="userSpaceOnUse" id="m" x1="720.743" x2="741"><stop offset="0" stop-color="#ffc6a1"/><stop offset=".5" stop-color="#ffba8d"/><stop offset="1" stop-color="#ff7f2c"/></linearGradient><linearGradient gradientUnits="userSpaceOnUse" id="k" x1="177.645" x2="380.583"><stop offset="0" stop-color="#563b09"/><stop offset="1" stop-color="#291d04"/></linearGradient><linearGradient gradientUnits="userSpaceOnUse" id="j" x1="9.001" x2="380.157"><stop offset="0" stop-color="#593d09"/><stop offset="1" stop-color="#7f5200"/></linearGradient><linearGradient id="a"><stop offset="0" stop-color="#f1aac2"/><stop offset="1" stop-color="#e5638f"/></linearGradient><linearGradient gradientUnits="userSpaceOnUse" id="g" x1="431.759" x2="473.733" y1="-381.617" y2="-348.908"><stop offset="0" stop-color="#ffceae"/><stop offset="1" stop-color="#ffb280"/></linearGradient><linearGradient id="b"><stop offset="0" stop-color="#8a8a8a"/><stop offset=".286" stop-color="#f1f1f1"/><stop offset="1" stop-color="#fff"/></linearGradient><linearGradient gradientUnits="userSpaceOnUse" id="c" x2="0" y1="247.154" y2="136.846"><stop offset="0"/><stop offset="1" stop-color="#4b3000"/></linearGradient><linearGradient gradientUnits="userSpaceOnUse" id="e" x1="377.005" x2="394.979" xlink:href="#a"/><linearGradient gradientUnits="userSpaceOnUse" id="f" x1="515.574" x2="497.6" xlink:href="#a"/><linearGradient gradientUnits="userSpaceOnUse" id="h" x1="430.791" x2="446.385" xlink:href="#b"/><linearGradient gradientUnits="userSpaceOnUse" id="i" x1="444.26" x2="459.854" xlink:href="#b"/><radialGradient cx="91.667" cy="-489.734" gradientTransform="matrix(-.313 .854 -1 -.367 -369.528 -742.883)" gradientUnits="userSpaceOnUse" id="l" r="28.141"><stop offset="0" stop-color="#7e7e8d"/><stop offset="1" stop-color="#18181b"/></radialGradient></defs><path d="M128.64 150.588c2.513 0 4.86.73 6.85 1.962h.173c6.972 0 12.678 5.47 13.027 12.354.012.222 0 .45 0 .674 0 1.886-.415 3.673-1.135 5.29 1.39 2.073 2.194 4.553 2.194 7.237 0 .225.01.45 0 .673-.35 6.885-6.057 12.354-13.03 12.354-.688 0-1.36-.052-2.02-.154-2.044 1.334-4.494 2.117-7.12 2.117-2.54 0-4.92-.724-6.926-1.982-.255.015-.51.02-.77.02-7.197 0-13.047-5.832-13.047-13.028 0-1.896.424-3.69 1.155-5.31-1.392-2.068-2.213-4.536-2.213-7.217 0-7.197 5.85-13.028 13.046-13.028.878 0 1.73.086 2.56.25 2.075-1.396 4.563-2.212 7.253-2.212z" fill="#734b02" stroke="#000" stroke-width="1.847"/><path d="M241.063 119.788c-3.357 0-6.426 1.042-8.813 2.812-1.936-.92-4.148-1.437-6.5-1.437-7.593 0-13.75 5.463-13.75 12.187 0 1.318.25 2.593.688 3.78-.553.555-1.036 1.15-1.47 1.783-3.132-2.61-7.535-4.25-12.437-4.25-7.302 0-13.536 3.625-16.03 8.718-1.75-.837-3.673-1.342-5.688-1.342-3.283 0-6.332 1.23-8.812 3.312-2.3-1.65-4.98-2.625-7.875-2.625-4.347 0-8.274 2.15-11.03 5.594-1.625-.404-3.335-.595-5.126-.595-4.368 0-8.34 1.287-11.376 3.406-3.384-4.554-9.234-7.56-15.906-7.56-10.482 0-19 7.422-19 16.593 0 2.186.497 4.276 1.374 6.187-.967-.195-1.903-.466-2.812-.812-3.05 6.317-9.213 10.625-16.344 10.625-.285 0-.56.013-.844 0-1.55 9.41-10.396 16.625-21.093 16.625-1.748 0-3.438-.23-5.064-.594-1.434 2.762-4.5 5.083-8.5 6.562-2.58 2.806-5.946 4.78-9.718 5.532 1.593.668 3.306 1.062 5.093 1.062 2.722 0 5.232-.84 7.44-2.312 1.067 4.337 4.485 7.5 8.53 7.5 4.9 0 8.875-4.663 8.875-10.407 0-1.2-.18-2.362-.5-3.436 3.47-.766 6.52-2.937 8.72-5.97.834.413 1.72.77 2.624 1 .174.29.363.563.56.845-.264-.03-.54-.032-.81-.032-4.903 0-8.845 4.63-8.845 10.375s3.942 10.406 8.844 10.406c2.816 0 5.342-1.54 6.968-3.94 3.652 6.572 13.347 11.38 25 11.908 1.53 3.125 4.422 5.25 7.718 5.25 2.955 0 5.544-1.71 7.156-4.313.84.894 1.805 1.777 2.876 2.563.687 4.94 4.338 8.687 8.75 8.687 2.4 0 4.558-1.12 6.156-2.937l.25.03c1.336 3.762 4.494 6.407 8.187 6.407 1.062 0 2.09-.225 3.032-.625 5.254 3.602 12.88 5.875 21.344 5.875 11.22 0 20.904-3.982 25.625-9.78.645-.028 1.307-.073 1.94-.126 1.774.76 3.72 1.218 5.81 1.218 5.736 0 10.658-3.205 12.72-7.75.344-.267.65-.534.97-.813.75.116 1.523.22 2.31.22 1.192 0 2.337-.148 3.44-.407 1.53 3.125 4.422 5.218 7.718 5.218 3.58 0 6.66-2.483 8.062-6.062.768.118 1.538.187 2.344.187 2.623 0 5.07-.65 7.156-1.78 1.587 1.743 3.716 2.78 6.063 2.78 3.766 0 6.992-2.744 8.28-6.624.37.04.716.063 1.094.063.932 0 1.87-.117 2.75-.345 1.48 1.29 3.297 2.03 5.282 2.03 3.657 0 6.797-2.576 8.155-6.28 2.083 1.157 4.538 1.813 7.156 1.813 5.344 0 9.976-2.757 12.25-6.813 1.59.585 3.338.906 5.158.906 7.592 0 13.718-5.614 13.718-12.53 0-.82-.085-1.6-.25-2.375 1.058-1.774 1.656-3.807 1.656-5.97 0-4.036-2.12-7.615-5.375-9.905.317-1.054.5-2.167.5-3.312 0-6.917-6.157-12.532-13.75-12.532-.67 0-1.322.072-1.968.157.264-.944.405-1.92.405-2.938 0-6.724-6.157-12.187-13.75-12.187-.22 0-.408.022-.625.03-1.533-3.113-4.43-5.187-7.72-5.187-1.284 0-2.49.332-3.592.908-3.404-5.832-11.63-10.237-21.688-11.407.014-.223.063-.458.063-.686 0-6.724-6.158-12.156-13.75-12.156zm43.628 52.217c.513 1.093 1.2 2.095 2.032 3-.763-.1-1.528-.187-2.312-.25.203-.833.28-1.677.28-2.563 0-.07.003-.118 0-.187zm-30.343 2.437c1.02.09 2.075.135 3.125.157.133.58.34 1.138.563 1.686-1.186-.574-2.457-1.076-3.782-1.53.033-.105.064-.21.094-.314z" fill="url(#c)"/><path d="M131.93 154.747c2.514 0 4.86.73 6.85 1.963h.174c6.972 0 12.678 5.47 13.027 12.354.013.222 0 .45 0 .673 0 1.887-.414 3.674-1.134 5.292 1.39 2.07 2.194 4.55 2.194 7.234 0 .225.012.452 0 .674-.35 6.885-6.056 12.354-13.028 12.354-.69 0-1.36-.052-2.02-.154-2.045 1.334-4.495 2.116-7.12 2.116-2.542 0-4.922-.723-6.927-1.982-.255.016-.51.02-.77.02-7.197 0-13.047-5.83-13.047-13.028 0-1.895.424-3.69 1.155-5.31-1.392-2.067-2.213-4.535-2.213-7.217 0-7.197 5.85-13.027 13.047-13.027.878 0 1.73.086 2.56.25 2.075-1.397 4.563-2.213 7.253-2.213z" fill="#3b2906"/><path d="M173.954 3.07c-.245 0-.575.037-.84.04v.043c-14.622.17-50.17 3.265-63.247 35.128-6.517-8.662-.005.003-21.026-19.935 0 0-26.373 25.842 9.612 44.193 12.5 115.967-12.965 160.53 61.022 158.936 4.216-.09 8.843-.03 13.64.084h.126l2.182.042v-.084c4.802-.114 9.422-.175 13.64-.084 73.988 1.593 48.524-42.97 61.023-158.936 35.985-18.35 9.61-44.193 9.61-44.193-21.02 19.938-14.508 11.273-21.026 19.936C225.15 5.3 187.553 3.07 173.953 3.07z" fill="#333" stroke="#000" stroke-linecap="round" stroke-linejoin="round" stroke-width="5.8084750000000005"/><path d="M491.48-290.82c0 31.73-19.714 57.45-44.032 57.45s-44.032-25.72-44.032-57.45 19.714-57.452 44.032-57.452 44.032 25.722 44.032 57.45z" fill="#93939f" stroke="#000" stroke-linecap="round" stroke-linejoin="round" stroke-width="1.845" transform="matrix(1.582 0 0 1.34 -531.995 585.983)"/><path d="M174.906 120.176c37.42 1.33 67.402 35.253 67.402 76.928 0 39.333-26.69 71.742-61.15 76.383 24.044-6.712 42.222-38.11 42.222-75.837 0-40.944-21.4-74.44-48.474-77.013v-.46z" fill="#7f7f8d"/><path d="M174.725 119.036c-37.42 1.33-67.402 35.254-67.402 76.93 0 39.332 26.69 71.74 61.148 76.382-24.04-6.712-42.22-38.11-42.22-75.837 0-40.943 21.4-74.44 48.475-77.012v-.462z" fill="#c1c1c8"/><path d="M148.704 31.6c-17.272 0-31.298 16.216-31.298 36.2s14.026 36.198 31.298 36.198c10.15 0 19.155-5.605 24.872-14.28 5.716 8.68 14.743 14.28 24.898 14.28 17.266 0 31.294-16.218 31.294-36.198s-14.028-36.2-31.294-36.2c-10.153 0-19.182 5.604-24.898 14.282-5.717-8.672-14.725-14.28-24.872-14.28z" fill="#fff" stroke="#000" stroke-linecap="round" stroke-width="5.483469"/><path d="M214.19 34.96c.382 2.298.563 4.685.563 7.11 0 20.64-14.463 37.372-32.298 37.372-10.49 0-19.848-5.774-25.753-14.74-5.906 8.96-15.18 14.74-25.665 14.74-5.2 0-10.125-1.417-14.48-3.946 2.873 17.247 15.993 30.305 31.735 30.305 10.484 0 19.802-5.822 25.71-14.783 5.903 8.967 15.217 14.784 25.708 14.784 17.835 0 32.342-16.774 32.342-37.414 0-14.625-7.28-27.28-17.862-33.425z" fill="#a5a5a5" filter="url(#d)" opacity=".337"/><path d="M171.54 70.237c0 5.002-4.06 9.058-9.06 9.058s-9.06-4.056-9.06-9.058c0-5.005 4.058-9.06 9.06-9.06 5.003 0 9.06 4.055 9.06 9.06z" stroke="#000" stroke-linecap="round" stroke-width="3.4751199999999995"/><path d="M161.56 67.064c0 1.297-1.052 2.348-2.35 2.348s-2.348-1.05-2.348-2.348 1.052-2.35 2.35-2.35 2.35 1.052 2.35 2.35z" fill="#fff"/><path d="M194.483 70.237c0 5.002-4.056 9.058-9.06 9.058-5.003 0-9.06-4.056-9.06-9.058 0-5.005 4.057-9.06 9.06-9.06s9.06 4.055 9.06 9.06z" stroke="#000" stroke-linecap="round" stroke-width="3.4751199999999995"/><path d="M184.503 67.064c0 1.297-1.052 2.348-2.35 2.348s-2.347-1.05-2.347-2.348 1.05-2.35 2.348-2.35 2.35 1.052 2.35 2.35z" fill="#fff"/><path d="M86.468 27.747S72.826 43.557 96.54 58.55c3.807-3.688 4.352-4.34 8.83-7.89v-2.855c-5.425-2.96-2.92-6.83-11.768-17.828l-7.134-2.23z" fill="url(#e)" stroke="#000" stroke-width="1.343"/><path d="M263.43 28.45s13.64 15.812-10.073 30.804c-3.807-3.69-4.352-4.34-8.83-7.892v-2.854c5.425-2.96 2.92-6.83 11.768-17.828l7.134-2.23z" fill="url(#f)" stroke="#000" stroke-width="1.343"/><path d="M165.895 122.428c37.42 1.33 67.4 35.254 67.4 76.93 0 39.332-26.69 71.74-61.147 76.382 24.042-6.712 42.22-38.11 42.22-75.837 0-40.944-21.398-74.44-48.473-77.013v-.462z" fill="#7f7f8d"/><path d="M174.238 93.207c-11.543 0-21.498 5.69-26.063 13.886-10.53 3.252-17.29 8.353-17.29 14.077 0 1.576.545 3.12 1.51 4.574-.725 1.69-1.09 3.447-1.09 5.252 0 13.04 19.993 23.604 44.654 23.604s44.653-10.564 44.653-23.604c0-2.076-.518-4.092-1.47-6.01.67-1.225 1.05-2.51 1.05-3.816 0-6.267-8.118-11.775-20.396-14.943-4.767-7.732-14.424-13.02-25.56-13.02z" fill="url(#g)" stroke="#000" stroke-width="2.686"/><path d="M190.585 101.09c0 8.708-7.06 15.768-15.77 15.768s-15.77-7.06-15.77-15.77 7.06-15.768 15.77-15.768 15.77 7.06 15.77 15.77z"/><path d="M155.674 135.078h17.874v27.237h-17.874z" fill="url(#h)" stroke="#000" stroke-width="3.044581"/><path d="M173.766 134.573h17.874v27.236h-17.874z" fill="url(#i)" stroke="#000" stroke-width="3.044581"/><path d="M138.77 125.87c25.968 14.494 50.252 12.153 73.216-3.38" stroke="#000" stroke-width="5.372" fill="none"/><path d="M273.22 135.288c-4.048 0-7.75 1.272-10.626 3.406-2.334-1.11-5.01-1.75-7.844-1.75-9.153 0-16.563 6.58-16.563 14.687 0 1.59.286 3.13.813 4.564-2.582 2.588-4.156 5.962-4.156 9.687 0 1.26.194 2.49.53 3.658-1.483.426-2.857 1.023-4.124 1.78-2.472 1.132-4.605 2.755-6.156 4.782-.003 0 .003.03 0 .03-1.545.58-3 1.222-4.375 1.94-2.62-6.063-7.617-10.46-13.564-11.5-3.08-2.78-6.906-4.44-11.094-4.44-3.957 0-7.634 1.462-10.625 3.97-2.77-1.99-6.01-3.156-9.5-3.156-9.503 0-17.294 8.533-18.156 19.406-1.687-.604-3.486-.937-5.343-.937-5.604 0-10.62 2.965-13.968 7.625-.925-.046-1.87-.094-2.814-.094-2.94 0-5.774.23-8.5.656-3.153-6.4-9.05-10.72-15.812-10.72-7.67 0-14.238 5.55-16.938 13.408-2.87-7.403-9.203-12.563-16.594-12.563-5.574 0-10.558 2.946-13.906 7.563-2.176-1.075-4.552-1.688-7.062-1.688-7.538 0-14.03 5.36-16.813 13-2.7-1.854-5.83-2.937-9.186-2.937-6.773 0-12.695 4.33-15.844 10.75-1.313-.674-2.788-1.063-4.313-1.063C4.78 205.35 0 210.957 0 217.88s4.78 12.533 10.688 12.533c1.793 0 3.515-.493 5-1.407.063.11.153.204.218.313 1.4 4.022 4.534 6.992 8.313 7.655 2.05.936 4.29 1.47 6.624 1.47 3.28 0 6.34-1.038 9-2.814 1.288 5.23 5.404 9.064 10.28 9.064.784 0 1.548-.095 2.282-.28 2.315 1.118 4.886 1.75 7.594 1.75 2.292 0 4.476-.467 6.5-1.283 1.887 1.966 4.368 3.158 7.094 3.158 3.395 0 6.415-1.86 8.375-4.75 4.4 7.92 16.108 13.738 30.155 14.375 1.845 3.768 5.308 6.312 9.28 6.312 3.564 0 6.713-2.05 8.657-5.187 1.012 1.077 2.148 2.114 3.438 3.062.83 5.957 5.245 10.5 10.563 10.5 2.895 0 5.51-1.342 7.437-3.53l.28.03c1.612 4.534 5.424 7.72 9.876 7.72 1.28 0 2.52-.27 3.656-.75 6.334 4.34 15.516 7.06 25.72 7.06 13.526 0 25.214-4.79 30.905-11.78.776-.033 1.552-.092 2.313-.156 2.14.918 4.51 1.47 7.03 1.47 6.915 0 12.828-3.865 15.314-9.345.415-.322.802-.634 1.187-.97.908.14 1.832.25 2.782.25 1.436 0 2.828-.187 4.157-.5 1.844 3.768 5.307 6.313 9.28 6.313 4.317 0 8.028-2.998 9.72-7.313.924.142 1.87.22 2.842.22 3.162 0 6.112-.797 8.625-2.157 1.914 2.1 4.484 3.375 7.313 3.375 4.54 0 8.415-3.323 9.97-8 .445.046.887.093 1.342.093 1.124 0 2.22-.16 3.282-.436 1.782 1.555 3.982 2.47 6.375 2.47 4.41 0 8.206-3.13 9.842-7.595 2.51 1.394 5.47 2.186 8.625 2.186 6.44 0 12.008-3.33 14.75-8.218 1.917.705 4.025 1.093 6.22 1.093 9.152 0 16.562-6.755 16.562-15.092 0-.988-.115-1.94-.314-2.875 1.276-2.14 2-4.582 2-7.188 0-4.866-2.544-9.177-6.47-11.937.383-1.27.595-2.62.595-4 0-8.338-7.44-15.094-16.592-15.094-.81 0-1.597.085-2.375.187.32-1.137.5-2.304.5-3.53 0-8.106-7.41-14.687-16.563-14.687-.265 0-.52.02-.78.03-1.85-3.753-5.318-6.28-9.283-6.28-1.548 0-3.014.4-4.343 1.093-4.103-7.03-14-12.34-26.125-13.75.016-.27.06-.538.06-.812 0-8.106-7.408-14.656-16.56-14.656zm50.72 61.53c.62 1.317 1.468 2.533 2.47 3.624-.92-.122-1.868-.205-2.813-.28.245-1.004.344-2.026.344-3.095 0-.084.003-.166 0-.25zm-36.562 2.968c1.228.108 2.485.162 3.75.188.16.7.42 1.37.688 2.03-1.43-.692-2.965-1.295-4.563-1.843.04-.124.09-.248.125-.374z" fill="url(#j)"/><path d="M273.642 135.386c-4.047 0-7.748 1.272-10.625 3.406-2.334-1.11-5.01-1.75-7.844-1.75-1.396 0-2.736.18-4.03.47 2.924 2.227 5.683 4.555 8.217 6.936 11.3 1.246 20.063 10.26 20.063 21.22 0 2.388-.42 4.698-1.188 6.843 1.645 5.01 2.532 10.166 2.532 15.438v.063c4.45 3.905 7.218 9.45 7.218 15.626 0 11.705-10.002 21.235-22.406 21.406-.38.436-.766.88-1.157 1.313.968 2.144 1.5 4.456 1.5 6.843 0 11.812-12.82 21.375-28.656 21.375-1.41 0-2.802-.072-4.157-.218-2.43 10.342-16.842 18.28-34.25 18.28-6.076 0-11.786-.955-16.75-2.655-3.31 3.805-8.043 6.586-13.468 7.718 6.094 3.306 14.066 5.282 22.812 5.282 13.527 0 25.215-4.79 30.906-11.782.776-.033 1.552-.09 2.313-.156 2.14.918 4.51 1.47 7.03 1.47 6.915 0 12.828-3.865 15.314-9.345.415-.32.802-.633 1.187-.97.907.14 1.83.25 2.78.25 1.437 0 2.83-.186 4.158-.5 1.845 3.77 5.308 6.314 9.28 6.314 4.318 0 8.03-2.997 9.72-7.312.925.142 1.872.22 2.843.22 3.162 0 6.112-.796 8.625-2.157 1.914 2.102 4.484 3.376 7.313 3.376 4.54 0 8.415-3.323 9.97-8 .445.047.887.094 1.342.094 1.124 0 2.22-.163 3.282-.438 1.782 1.556 3.982 2.47 6.375 2.47 4.41 0 8.207-3.13 9.843-7.595 2.51 1.395 5.47 2.188 8.625 2.188 6.44 0 12.008-3.33 14.75-8.22 1.917.706 4.025 1.095 6.22 1.095 9.152 0 16.562-6.756 16.562-15.094 0-.988-.114-1.94-.313-2.875 1.275-2.138 2-4.58 2-7.187 0-4.866-2.545-9.176-6.47-11.937.382-1.27.594-2.62.594-4 0-8.338-7.44-15.094-16.594-15.094-.81 0-1.596.085-2.375.188.32-1.138.5-2.306.5-3.532 0-8.106-7.41-14.687-16.562-14.687-.265 0-.52.02-.78.032-1.85-3.754-5.318-6.28-9.283-6.28-1.548 0-3.014.4-4.343 1.093-4.103-7.03-14-12.34-26.125-13.75.017-.27.062-.538.062-.813 0-8.106-7.41-14.656-16.562-14.656zm50.722 61.53c.618 1.317 1.467 2.534 2.47 3.625-.92-.12-1.87-.205-2.814-.28.245-1.004.344-2.026.344-3.094 0-.084.002-.166 0-.25z" fill="url(#k)"/><path d="M161.417 249.698c1.45 0 2.805.42 3.954 1.133h.1c4.025 0 7.32 3.158 7.52 7.132.008.128 0 .26 0 .39 0 1.088-.24 2.12-.655 3.053.802 1.196 1.267 2.628 1.267 4.177 0 .13.007.26 0 .388-.202 3.975-3.496 7.13-7.52 7.13-.398 0-.785-.03-1.166-.088-1.18.77-2.595 1.222-4.11 1.222-1.467 0-2.84-.417-4-1.144-.146.01-.294.01-.443.01-4.154 0-7.53-3.364-7.53-7.518 0-1.095.244-2.13.666-3.066-.805-1.193-1.28-2.618-1.28-4.165 0-4.154 3.378-7.52 7.532-7.52.507 0 1 .05 1.477.145 1.198-.806 2.634-1.277 4.187-1.277z" fill="#734b02" stroke="#000" stroke-width="1.066"/><path d="M163.317 252.1c1.45 0 2.805.42 3.954 1.132h.1c4.025 0 7.32 3.157 7.52 7.13.007.13 0 .26 0 .39 0 1.09-.24 2.12-.655 3.054.802 1.196 1.266 2.628 1.266 4.177 0 .13.008.26 0 .388-.2 3.976-3.494 7.132-7.518 7.132-.398 0-.786-.03-1.167-.088-1.18.77-2.594 1.22-4.11 1.22-1.467 0-2.84-.416-3.998-1.143-.147.01-.295.012-.444.012-4.155 0-7.53-3.365-7.53-7.52 0-1.094.244-2.13.665-3.065-.803-1.193-1.277-2.618-1.277-4.165 0-4.155 3.378-7.52 7.532-7.52.507 0 1 .05 1.477.144 1.198-.806 2.634-1.277 4.187-1.277z" fill="#3b2906"/><path d="M244.517 249.155c1.45 0 2.806.422 3.954 1.133h.1c4.026 0 7.32 3.157 7.52 7.13.008.13 0 .26 0 .39 0 1.09-.238 2.12-.654 3.054.8 1.196 1.266 2.628 1.266 4.177 0 .128.007.26 0 .387-.2 3.975-3.495 7.13-7.52 7.13-.397 0-.785-.028-1.166-.088-1.18.77-2.595 1.22-4.11 1.22-1.467 0-2.84-.416-3.998-1.143-.148.01-.295.01-.445.01-4.154 0-7.53-3.364-7.53-7.518 0-1.096.244-2.13.666-3.067-.805-1.193-1.278-2.618-1.278-4.165 0-4.155 3.376-7.52 7.53-7.52.508 0 1 .05 1.478.144 1.198-.806 2.634-1.277 4.187-1.277z" fill="#734b02" stroke="#000" stroke-width="1.066"/><path d="M246.417 251.556c1.45 0 2.805.422 3.954 1.133h.1c4.026 0 7.32 3.156 7.52 7.13.008.128 0 .26 0 .39 0 1.088-.24 2.12-.654 3.053.8 1.196 1.266 2.628 1.266 4.177 0 .13.007.26 0 .39-.202 3.973-3.495 7.13-7.52 7.13-.398 0-.785-.03-1.166-.09-1.18.77-2.595 1.222-4.11 1.222-1.467 0-2.84-.417-4-1.144-.146.01-.293.01-.443.01-4.154 0-7.53-3.364-7.53-7.518 0-1.094.244-2.13.666-3.066-.805-1.193-1.28-2.617-1.28-4.165 0-4.155 3.378-7.52 7.532-7.52.507 0 1 .05 1.477.144 1.198-.807 2.634-1.278 4.187-1.278z" fill="#3b2906"/><path d="M353.45 202.57c2.24 0 4.33.65 6.102 1.748h.154c6.208 0 11.29 4.87 11.6 11 .01.2 0 .4 0 .6 0 1.68-.37 3.272-1.01 4.713 1.236 1.846 1.953 4.055 1.953 6.444 0 .2.01.402 0 .6-.312 6.13-5.393 11-11.602 11-.613 0-1.21-.045-1.8-.136-1.82 1.188-4.002 1.885-6.34 1.885-2.263 0-4.382-.644-6.168-1.765-.227.014-.455.017-.685.017-6.41 0-11.618-5.192-11.618-11.6 0-1.69.377-3.286 1.028-4.73-1.24-1.84-1.97-4.038-1.97-6.426 0-6.41 5.208-11.602 11.617-11.602.782 0 1.542.076 2.28.223 1.848-1.243 4.063-1.97 6.46-1.97z" fill="#734b02" stroke="#000" stroke-width="1.645"/><path d="M356.382 206.275c2.24 0 4.328.65 6.1 1.747h.155c6.208 0 11.29 4.87 11.6 11.002.01.197 0 .4 0 .6 0 1.68-.37 3.27-1.01 4.712 1.236 1.845 1.953 4.053 1.953 6.443 0 .2.01.4 0 .598-.31 6.132-5.392 11.002-11.6 11.002-.614 0-1.212-.047-1.8-.138-1.82 1.19-4.003 1.885-6.34 1.885-2.264 0-4.384-.644-6.17-1.765-.226.014-.454.017-.685.017-6.41 0-11.618-5.193-11.618-11.6 0-1.69.378-3.287 1.028-4.73-1.24-1.84-1.97-4.04-1.97-6.427 0-6.41 5.21-11.6 11.618-11.6.782 0 1.54.076 2.28.222 1.848-1.244 4.063-1.97 6.46-1.97z" fill="#3b2906"/><path d="M303.21 182.096c1.538 0 2.974.447 4.192 1.202h.106c4.268 0 7.76 3.347 7.974 7.56.007.137 0 .276 0 .413 0 1.156-.254 2.25-.695 3.24.85 1.27 1.343 2.786 1.343 4.43 0 .137.007.275 0 .41-.214 4.216-3.706 7.563-7.974 7.563-.42 0-.832-.032-1.236-.095-1.252.817-2.752 1.296-4.358 1.296-1.556 0-3.013-.443-4.24-1.213-.157.01-.313.013-.472.013-4.405 0-7.985-3.57-7.985-7.974 0-1.16.26-2.26.707-3.252-.853-1.265-1.355-2.776-1.355-4.417 0-4.404 3.58-7.972 7.986-7.972.537 0 1.06.052 1.566.153 1.27-.854 2.793-1.354 4.44-1.354z" fill="#734b02" stroke="#000" stroke-width="1.131"/><path d="M306.9 186.32c1.54 0 2.976.447 4.194 1.2h.106c4.268 0 7.76 3.348 7.974 7.563.007.136 0 .274 0 .412 0 1.155-.254 2.248-.695 3.24.85 1.267 1.342 2.785 1.342 4.427 0 .138.007.277 0 .413-.214 4.214-3.706 7.56-7.974 7.56-.422 0-.833-.03-1.237-.093-1.25.817-2.75 1.296-4.357 1.296-1.555 0-3.012-.443-4.24-1.214-.156.01-.312.012-.47.012-4.406 0-7.986-3.568-7.986-7.974 0-1.16.26-2.258.706-3.25-.852-1.265-1.354-2.776-1.354-4.417 0-4.405 3.58-7.974 7.984-7.974.538 0 1.06.054 1.567.154 1.272-.855 2.794-1.354 4.44-1.354z" fill="#3b2906" opacity=".802"/><path d="M31.487 215.607c1.45 0 2.805.42 3.954 1.133h.1c4.025 0 7.32 3.156 7.52 7.13.008.13 0 .26 0 .39 0 1.09-.24 2.12-.655 3.054.802 1.196 1.267 2.628 1.267 4.177 0 .13.007.26 0 .39-.202 3.974-3.496 7.13-7.52 7.13-.398 0-.785-.03-1.166-.09-1.18.772-2.595 1.223-4.11 1.223-1.468 0-2.84-.417-4-1.144-.146.008-.294.01-.443.01-4.154 0-7.53-3.365-7.53-7.52 0-1.094.244-2.13.665-3.065-.803-1.193-1.277-2.618-1.277-4.165 0-4.155 3.378-7.52 7.532-7.52.507 0 1 .05 1.477.144 1.198-.806 2.634-1.277 4.187-1.277z" fill="#734b02" stroke="#000" stroke-width="1.066"/><path d="M33.386 218.008c1.45 0 2.806.422 3.955 1.133h.1c4.025 0 7.32 3.158 7.52 7.132.007.128 0 .26 0 .39 0 1.088-.24 2.12-.655 3.053.802 1.196 1.266 2.628 1.266 4.177 0 .13.008.26 0 .388-.2 3.975-3.494 7.13-7.518 7.13-.398 0-.786-.028-1.167-.087-1.18.77-2.594 1.22-4.11 1.22-1.467 0-2.84-.416-3.998-1.143-.147.01-.295.01-.444.01-4.155 0-7.53-3.364-7.53-7.518 0-1.095.243-2.13.665-3.066-.804-1.193-1.277-2.618-1.277-4.165 0-4.154 3.377-7.52 7.532-7.52.507 0 1 .05 1.477.145 1.197-.806 2.633-1.277 4.186-1.277z" fill="#3b2906"/><path d="M108.647 220.64c1.45 0 2.806.42 3.955 1.132h.1c4.024 0 7.318 3.157 7.52 7.13.006.13 0 .26 0 .39 0 1.09-.24 2.12-.656 3.054.802 1.196 1.266 2.628 1.266 4.177 0 .13.007.26 0 .39-.2 3.973-3.495 7.13-7.52 7.13-.397 0-.785-.03-1.166-.09-1.18.77-2.595 1.222-4.11 1.222-1.467 0-2.84-.417-3.998-1.144-.147.01-.295.012-.444.012-4.155 0-7.53-3.365-7.53-7.52 0-1.094.243-2.13.665-3.065-.805-1.193-1.278-2.618-1.278-4.165 0-4.154 3.376-7.52 7.53-7.52.508 0 1 .05 1.478.144 1.198-.806 2.634-1.277 4.187-1.277z" fill="#734b02" stroke="#000" stroke-width="1.066"/><path d="M110.547 223.04c1.45 0 2.805.422 3.954 1.133h.1c4.026 0 7.32 3.157 7.52 7.13.008.13 0 .26 0 .39 0 1.09-.24 2.12-.654 3.055.8 1.195 1.266 2.627 1.266 4.176 0 .13.007.26 0 .39-.202 3.973-3.495 7.13-7.52 7.13-.397 0-.785-.03-1.166-.09-1.18.77-2.595 1.223-4.11 1.223-1.467 0-2.84-.418-4-1.145-.146.01-.293.012-.443.012-4.154 0-7.53-3.366-7.53-7.52 0-1.094.244-2.13.666-3.066-.805-1.193-1.28-2.617-1.28-4.165 0-4.154 3.378-7.52 7.532-7.52.507 0 1 .05 1.478.145 1.198-.807 2.634-1.278 4.187-1.278z" fill="#3b2906" fill-opacity=".507"/><path d="M273.038 211.304c1.463 0 2.828.264 3.986.71h.1c4.058 0 7.38 1.98 7.582 4.473.007.08 0 .162 0 .244 0 .684-.242 1.33-.66 1.917.808.75 1.276 1.647 1.276 2.62 0 .08.007.162 0 .243-.203 2.492-3.524 4.472-7.58 4.472-.402 0-.793-.02-1.177-.056-1.19.484-2.616.767-4.143.767-1.48 0-2.865-.262-4.032-.718-.148.006-.297.007-.447.007-4.19 0-7.593-2.11-7.593-4.716 0-.686.247-1.336.672-1.923-.81-.748-1.288-1.64-1.288-2.612 0-2.605 3.405-4.715 7.593-4.715.51 0 1.007.03 1.49.09 1.207-.505 2.655-.8 4.22-.8z" fill="#734b02" stroke="#000" stroke-width=".848"/><path d="M274.953 212.81c1.463 0 2.828.264 3.986.71h.1c4.057 0 7.378 1.98 7.58 4.473.008.08 0 .162 0 .244 0 .683-.24 1.33-.66 1.916.81.75 1.277 1.647 1.277 2.62 0 .08.007.162 0 .243-.203 2.492-3.524 4.472-7.58 4.472-.402 0-.793-.02-1.177-.056-1.19.483-2.616.767-4.143.767-1.48 0-2.864-.263-4.03-.72-.15.007-.3.008-.45.008-4.187 0-7.592-2.11-7.592-4.716 0-.686.247-1.336.672-1.923-.81-.75-1.287-1.643-1.287-2.613 0-2.606 3.404-4.716 7.592-4.716.51 0 1.007.032 1.49.09 1.208-.505 2.655-.8 4.22-.8z" fill="#3b2906" fill-opacity=".507"/><path d="M81.75 181.153c1.462 0 2.828.264 3.986.71h.1c4.058 0 7.38 1.98 7.582 4.473.007.08 0 .162 0 .244 0 .683-.242 1.33-.66 1.916.807.75 1.276 1.647 1.276 2.62 0 .08.007.162 0 .243-.204 2.49-3.524 4.47-7.58 4.47-.402 0-.793-.018-1.177-.055-1.19.483-2.616.767-4.144.767-1.48 0-2.864-.262-4.03-.718-.15.006-.298.007-.45.007-4.187 0-7.59-2.11-7.59-4.715 0-.686.246-1.336.67-1.923-.81-.748-1.287-1.64-1.287-2.612 0-2.606 3.404-4.716 7.592-4.716.512 0 1.008.03 1.49.09 1.208-.505 2.656-.8 4.22-.8z" fill="#734b02" stroke="#000" stroke-width=".848"/><path d="M83.664 182.66c1.463 0 2.83.263 3.987.71h.102c4.057 0 7.378 1.98 7.58 4.472.008.08 0 .162 0 .244 0 .683-.24 1.33-.66 1.915.808.752 1.277 1.65 1.277 2.62 0 .082.006.164 0 .245-.204 2.492-3.525 4.472-7.582 4.472-.4 0-.792-.02-1.176-.056-1.19.484-2.616.768-4.143.768-1.48 0-2.866-.262-4.033-.718-.148.006-.297.007-.448.007-4.19 0-7.593-2.11-7.593-4.716 0-.685.247-1.335.672-1.922-.81-.748-1.29-1.642-1.29-2.612 0-2.606 3.405-4.717 7.594-4.717.51 0 1.007.03 1.49.09 1.207-.506 2.655-.8 4.22-.8z" fill="#3b2906" fill-opacity=".507"/><path d="M206.58 197.67c2.255 0 4.36.408 6.143 1.096h.155c6.252 0 11.368 3.05 11.68 6.89.012.125 0 .25 0 .376 0 1.053-.37 2.05-1.017 2.952 1.246 1.156 1.968 2.54 1.968 4.036 0 .125.01.252 0 .375-.313 3.84-5.43 6.89-11.68 6.89-.618 0-1.22-.028-1.812-.085-1.833.745-4.03 1.18-6.384 1.18-2.28 0-4.413-.402-6.21-1.104-.23.01-.46.01-.69.01-6.454 0-11.7-3.252-11.7-7.266 0-1.057.38-2.058 1.036-2.962-1.248-1.153-1.984-2.53-1.984-4.025 0-4.015 5.245-7.267 11.698-7.267.787 0 1.552.048 2.294.14 1.862-.78 4.093-1.235 6.505-1.235z" fill="#734b02" stroke="#000" stroke-width="1.306"/><path d="M209.532 199.99c2.254 0 4.357.41 6.142 1.096h.155c6.25 0 11.367 3.05 11.68 6.89.01.125 0 .25 0 .377 0 1.052-.373 2.05-1.018 2.95 1.245 1.157 1.967 2.54 1.967 4.037 0 .125.01.252 0 .376-.314 3.84-5.43 6.89-11.682 6.89-.617 0-1.22-.028-1.81-.085-1.835.745-4.032 1.18-6.385 1.18-2.28 0-4.413-.402-6.21-1.104-.23.01-.46.01-.69.01-6.454 0-11.7-3.252-11.7-7.266 0-1.057.38-2.058 1.036-2.962-1.25-1.153-1.985-2.53-1.985-4.025 0-4.015 5.245-7.267 11.698-7.267.787 0 1.552.048 2.294.14 1.862-.78 4.092-1.235 6.505-1.235z" fill="#3b2906" fill-opacity=".507"/><path d="M122.058 177.773c0 9.264-12.152 16.774-27.14 16.774s-27.142-7.51-27.142-16.774S79.926 161 94.916 161s27.142 7.51 27.142 16.773z" fill="url(#l)" stroke="#000" stroke-linecap="round" stroke-linejoin="round" stroke-width="2"/><g stroke="#000" stroke-width=".839"><path d="M101.594 182.012c4.92 5.43 10.58 8.244 10.58 8.244s-3 13.34-10.265 16.988c0 0-14.997-28.88-6.497-35.667 0 0 1.837 5.642 6.18 10.435z" fill="url(#m)"/><path d="M95.317 171.262c.31.444.27 1.034-.087 1.32-1.705 1.36-2.334 3.775-2.203 6.94.133 3.144 1.054 6.926 2.293 10.636 1.422 4.267 3.252 8.448 4.725 11.553.903 1.907 1.667 3.402 2.124 4.272 4.662-2.852 7.523-10.32 8.61-13.998.385-1.282.564-2.076.563-2.078.112-.49.573-.73 1.03-.538s.746.748.635 1.24c-.06.06-2.933 13.537-10.66 17.518-.393.196-.9-.01-1.152-.47-.016-.033-4.538-8.266-7.472-17.062-1.274-3.832-2.255-7.77-2.407-11.246-.155-3.46.545-6.57 2.793-8.367.076-.06.16-.103.25-.127.33-.09.715.062.957.41z"/></g><g stroke="#000" stroke-width=".839"><path d="M76.782 179.95c1.84 7.096 5.55 12.214 5.55 12.214s-8.85 10.428-16.978 10.29c0 0 .114-32.547 10.794-34.616 0 0-.99 5.85.634 12.113z" fill="url(#m)"/><path d="M76.21 167.514c.067.537-.24 1.042-.69 1.13-2.142.413-3.82 2.26-5.173 5.126-1.34 2.847-2.28 6.625-2.903 10.487-.72 4.44-1.04 8.994-1.175 12.43-.085 2.106-.1 3.785-.1 4.768 5.454-.363 11.454-5.652 14.123-8.407.937-.956 1.464-1.577 1.464-1.58.326-.382.847-.38 1.163.003s.313 1.008-.013 1.392c-.082.026-8.88 10.633-17.574 10.575-.44-.008-.792-.425-.803-.95.002-.037-.185-9.43 1.297-18.585.65-3.986 1.608-7.93 3.086-11.08 1.467-3.137 3.53-5.567 6.357-6.118.096-.018.19-.017.28.003.335.073.605.388.66.807z"/></g><g stroke="#000" stroke-width=".839"><path d="M88.715 181.967c2.526 6.88 6.717 11.61 6.717 11.61s-7.786 11.242-15.887 11.9c0 0-3.07-32.397 7.354-35.5 0 0-.414 5.918 1.815 11.99z" fill="url(#m)"/><path d="M86.928 169.65c.12.526-.137 1.06-.577 1.19-2.088.62-3.577 2.623-4.643 5.607-1.055 2.964-1.62 6.815-1.862 10.72-.283 4.487-.154 9.05.047 12.48.123 2.106.27 3.778.367 4.756 5.39-.895 10.844-6.745 13.23-9.747.84-1.043 1.302-1.713 1.302-1.715.287-.41.806-.462 1.158-.11s.41.972.123 1.385c-.08.034-7.796 11.45-16.452 12.242-.437.036-.83-.345-.89-.866-.003-.037-1.108-9.364-.53-18.62.257-4.03.825-8.046 1.988-11.326 1.153-3.265 2.968-5.885 5.726-6.71.094-.027.188-.035.28-.024.34.04.64.326.734.74z"/></g><path d="M226.17 149.472c0 9.264 12.152 16.774 27.14 16.774s27.142-7.51 27.142-16.774-12.15-16.774-27.14-16.774-27.142 7.51-27.142 16.774z" fill="url(#l)" stroke="#000" stroke-linecap="round" stroke-linejoin="round" stroke-width="2"/><g stroke="#000" stroke-width=".839"><path d="M246.634 153.712c-4.92 5.43-10.58 8.244-10.58 8.244s3 13.34 10.265 16.988c0 0 14.995-28.88 6.495-35.667 0 0-1.837 5.642-6.18 10.435z" fill="url(#m)"/><path d="M252.91 142.962c-.31.444-.27 1.034.088 1.32 1.705 1.36 2.334 3.775 2.203 6.94-.132 3.144-1.053 6.926-2.292 10.636-1.422 4.267-3.252 8.448-4.725 11.553-.903 1.907-1.667 3.402-2.124 4.272-4.664-2.852-7.525-10.32-8.61-13.998-.387-1.282-.566-2.076-.565-2.078-.112-.49-.573-.73-1.03-.538s-.746.748-.635 1.24c.06.06 2.934 13.537 10.66 17.518.393.196.9-.01 1.152-.47.016-.033 4.538-8.266 7.472-17.062 1.274-3.832 2.255-7.77 2.407-11.246.156-3.46-.544-6.57-2.792-8.367-.076-.06-.16-.103-.25-.127-.33-.09-.715.062-.957.41z"/></g><g stroke="#000" stroke-width=".839"><path d="M271.447 151.65c-1.84 7.095-5.55 12.213-5.55 12.213s8.85 10.428 16.978 10.29c0 0-.114-32.547-10.794-34.616 0 0 .99 5.85-.633 12.113z" fill="url(#m)"/><path d="M272.02 139.213c-.068.537.24 1.042.69 1.13 2.14.413 3.82 2.26 5.172 5.126 1.34 2.846 2.28 6.624 2.903 10.486.72 4.44 1.04 8.994 1.175 12.43.084 2.106.1 3.785.1 4.768-5.455-.363-11.455-5.652-14.124-8.407-.937-.956-1.464-1.577-1.464-1.58-.326-.382-.847-.38-1.163.003s-.314 1.007.012 1.39c.082.027 8.88 10.634 17.574 10.576.44-.008.792-.425.803-.95-.003-.037.184-9.43-1.298-18.585-.65-3.985-1.608-7.928-3.086-11.08-1.467-3.136-3.53-5.566-6.357-6.117-.097-.018-.192-.017-.282.003-.334.073-.604.388-.658.807z"/></g><g stroke="#000" stroke-width=".839"><path d="M259.513 153.667c-2.526 6.88-6.717 11.61-6.717 11.61s7.786 11.242 15.887 11.9c0 0 3.07-32.397-7.354-35.5 0 0 .412 5.918-1.817 11.99z" fill="url(#m)"/><path d="M261.3 141.35c-.12.526.137 1.06.577 1.19 2.09.62 3.578 2.623 4.644 5.607 1.056 2.964 1.62 6.815 1.863 10.72.283 4.487.154 9.05-.047 12.48-.123 2.106-.27 3.778-.367 4.756-5.393-.895-10.846-6.745-13.232-9.747-.84-1.043-1.302-1.713-1.302-1.715-.287-.41-.806-.462-1.158-.11s-.41.972-.123 1.385c.08.034 7.796 11.45 16.452 12.242.438.036.83-.345.892-.866 0-.037 1.106-9.364.527-18.62-.256-4.03-.824-8.046-1.987-11.326-1.153-3.265-2.968-5.885-5.726-6.71-.094-.027-.188-.035-.28-.024-.34.04-.64.326-.734.74z"/></g></svg>