<svg width="327.121" height="236" xmlns="http://www.w3.org/2000/svg" xmlns:xlink="http://www.w3.org/1999/xlink"><title>Grass</title><defs><linearGradient id="g"><stop stop-color="#366b04" offset="0"/><stop stop-color="#366b04" stop-opacity="0" offset="1"/></linearGradient><linearGradient id="f"><stop stop-color="#336404" offset="0"/><stop stop-color="#336404" stop-opacity="0" offset="1"/></linearGradient><linearGradient id="d"><stop stop-color="#336404" offset="0"/><stop stop-color="#4e9a06" offset="1"/></linearGradient><linearGradient id="e"><stop stop-color="#336404" offset="0"/><stop stop-color="#4e9a06" offset="1"/></linearGradient><linearGradient id="c"><stop stop-color="#4e9a06" offset="0"/><stop stop-color="#336404" offset="1"/></linearGradient><linearGradient id="b"><stop stop-color="#336404" offset="0"/><stop stop-color="#4e9a06" offset="1"/></linearGradient><linearGradient id="a"><stop stop-color="#73d216" offset="0"/><stop stop-color="#4e9a06" offset="1"/></linearGradient><linearGradient y2=".219" x2=".055" y1=".215" x1=".645" id="C" xlink:href="#a"/><linearGradient y2=".183" x2="-.092" y1=".178" x1=".592" id="B" xlink:href="#a"/><linearGradient y2=".345" x2="-.185" y1=".341" x1=".5" id="A" xlink:href="#a"/><linearGradient y2=".194" x2=".373" y1=".148" id="z" xlink:href="#a"/><linearGradient y2=".082" x2=".025" y1=".069" x1=".554" id="y" xlink:href="#a"/><linearGradient x2="0" y1=".588" x1="1" id="x" xlink:href="#b"/><linearGradient y2=".315" x2="1.437" y1=".308" x1=".829" id="w" xlink:href="#c"/><linearGradient y2=".184" x2="-.262" y1=".179" x1=".526" id="v" xlink:href="#d"/><linearGradient y2="-.078" x2="1" y1=".556" x1="-.653" id="u" xlink:href="#b"/><linearGradient y2=".119" x2="-.224" y1=".113" x1=".449" id="t" xlink:href="#e"/><linearGradient y2=".219" x2=".055" y1=".215" x1=".645" id="s" xlink:href="#a"/><linearGradient y2=".219" x2=".055" y1=".215" x1=".645" id="r" xlink:href="#a"/><linearGradient y2=".183" x2="-.092" y1=".178" x1=".592" id="q" xlink:href="#a"/><linearGradient y2=".345" x2="1.184" y1=".341" x1=".5" id="p" xlink:href="#a"/><linearGradient y2=".194" x2=".373" y1=".148" id="o" xlink:href="#a"/><linearGradient y2=".069" x2="-.263" y1=".056" x1=".422" id="n" xlink:href="#a"/><linearGradient x2="0" y1=".588" x1="1" id="m" xlink:href="#b"/><linearGradient y2=".315" x2="1.437" y1=".308" x1=".829" id="l" xlink:href="#c"/><linearGradient y2=".281" x2="-.263" y1=".276" x1=".526" id="k" xlink:href="#d"/><linearGradient y2="-.078" x2="1" y1=".556" x1="-.653" id="j" xlink:href="#b"/><linearGradient y2=".119" x2="-.224" y1=".113" x1=".449" id="i" xlink:href="#e"/><linearGradient y2=".183" x2="1.092" y1=".178" x1=".408" id="V" xlink:href="#a"/><linearGradient y2=".345" x2="1.184" y1=".341" x1=".5" id="U" xlink:href="#a"/><linearGradient y2=".194" x2=".627" y1=".148" x1="1" id="T" xlink:href="#a"/><linearGradient y2=".082" x2=".975" y1=".069" x1=".447" id="S" xlink:href="#a"/><linearGradient y2=".315" x2="-.436" y1=".308" x1=".171" id="R" xlink:href="#c"/><linearGradient y2=".184" x2="1.263" y1=".179" x1=".474" id="Q" xlink:href="#d"/><linearGradient y2="-.078" x2="0" y1=".556" x1="1.653" id="P" xlink:href="#b"/><linearGradient y2=".119" x2="1.224" y1=".113" x1=".551" id="O" xlink:href="#e"/><linearGradient y2=".219" x2=".945" y1=".215" x1=".355" id="N" xlink:href="#a"/><linearGradient y2=".219" x2=".945" y1=".215" x1=".355" id="M" xlink:href="#a"/><linearGradient y2=".183" x2="1.092" y1=".178" x1=".408" id="L" xlink:href="#a"/><linearGradient y2=".345" x2="-.184" y1=".341" x1=".5" id="K" xlink:href="#a"/><linearGradient y2=".194" x2=".627" y1=".148" x1="1" id="J" xlink:href="#a"/><linearGradient y2=".069" x2="1.263" y1=".056" x1=".578" id="I" xlink:href="#a"/><linearGradient x2="1" y1=".588" id="H" xlink:href="#b"/><linearGradient y2=".315" x2="-.437" y1=".308" x1=".171" id="G" xlink:href="#c"/><linearGradient y2=".281" x2="1.263" y1=".276" x1=".474" id="F" xlink:href="#d"/><linearGradient y2="-.078" x2="0" y1=".556" x1="1.653" id="E" xlink:href="#b"/><linearGradient y2=".119" x2="1.224" y1=".113" x1=".551" id="D" xlink:href="#e"/><linearGradient y2="-.245" x2=".48" y1=".936" x1=".48" id="h" xlink:href="#f"/><linearGradient y2="-.245" x2=".48" y1=".936" x1=".48" id="W" xlink:href="#f"/><linearGradient y2=".119" x2="-.224" y1=".113" x1=".449" id="X" xlink:href="#e"/><linearGradient y2="-.078" x2="1" y1=".556" x1="-.653" id="Y" xlink:href="#b"/><linearGradient y2=".281" x2="-.263" y1=".276" x1=".526" id="Z" xlink:href="#d"/><linearGradient y2=".315" x2="1.437" y1=".308" x1=".829" id="aa" xlink:href="#c"/><linearGradient x2="0" y1=".588" x1="1" id="ab" xlink:href="#b"/><linearGradient y2=".069" x2="-.263" y1=".056" x1=".422" id="ac" xlink:href="#a"/><linearGradient y2=".194" x2=".373" y1=".148" id="ad" xlink:href="#a"/><linearGradient y2=".345" x2="1.184" y1=".341" x1=".5" id="ae" xlink:href="#a"/><linearGradient y2=".183" x2="-.092" y1=".178" x1=".592" id="af" xlink:href="#a"/><linearGradient y2=".219" x2=".055" y1=".215" x1=".645" id="ag" xlink:href="#a"/><linearGradient y2=".219" x2=".055" y1=".215" x1=".645" id="ah" xlink:href="#a"/><linearGradient y2=".119" x2="-.224" y1=".113" x1=".449" id="ai" xlink:href="#e"/><linearGradient y2="-.078" x2="1" y1=".556" x1="-.653" id="aj" xlink:href="#b"/><linearGradient y2=".184" x2="-.262" y1=".179" x1=".526" id="ak" xlink:href="#d"/><linearGradient y2=".315" x2="1.437" y1=".308" x1=".829" id="al" xlink:href="#c"/><linearGradient x2="0" y1=".588" x1="1" id="am" xlink:href="#b"/><linearGradient y2=".082" x2=".025" y1=".069" x1=".554" id="an" xlink:href="#a"/><linearGradient y2=".194" x2=".373" y1=".148" id="ao" xlink:href="#a"/><linearGradient y2=".345" x2="-.185" y1=".341" x1=".5" id="ap" xlink:href="#a"/><linearGradient y2=".183" x2="-.092" y1=".178" x1=".592" id="aq" xlink:href="#a"/><linearGradient y2=".219" x2=".055" y1=".215" x1=".645" id="ar" xlink:href="#a"/><linearGradient y2=".119" x2="1.224" y1=".113" x1=".551" id="as" xlink:href="#e"/><linearGradient y2="-.078" x2="0" y1=".556" x1="1.653" id="at" xlink:href="#b"/><linearGradient y2=".281" x2="1.263" y1=".276" x1=".474" id="au" xlink:href="#d"/><linearGradient y2=".315" x2="-.437" y1=".308" x1=".171" id="av" xlink:href="#c"/><linearGradient x2="1" y1=".588" id="aw" xlink:href="#b"/><linearGradient y2=".069" x2="1.263" y1=".056" x1=".578" id="ax" xlink:href="#a"/><linearGradient y2=".194" x2=".627" y1=".148" x1="1" id="ay" xlink:href="#a"/><linearGradient y2=".345" x2="-.184" y1=".341" x1=".5" id="az" xlink:href="#a"/><linearGradient y2=".183" x2="1.092" y1=".178" x1=".408" id="aA" xlink:href="#a"/><linearGradient y2=".219" x2=".945" y1=".215" x1=".355" id="aB" xlink:href="#a"/><linearGradient y2=".219" x2=".945" y1=".215" x1=".355" id="aC" xlink:href="#a"/><linearGradient y2=".119" x2="1.224" y1=".113" x1=".551" id="aD" xlink:href="#e"/><linearGradient y2="-.078" x2="0" y1=".556" x1="1.653" id="aE" xlink:href="#b"/><linearGradient y2=".184" x2="1.263" y1=".179" x1=".474" id="aF" xlink:href="#d"/><linearGradient y2=".315" x2="-.436" y1=".308" x1=".171" id="aG" xlink:href="#c"/><linearGradient y2=".082" x2=".975" y1=".069" x1=".447" id="aH" xlink:href="#a"/><linearGradient y2=".194" x2=".627" y1=".148" x1="1" id="aI" xlink:href="#a"/><linearGradient y2=".345" x2="1.184" y1=".341" x1=".5" id="aJ" xlink:href="#a"/><linearGradient y2=".183" x2="1.092" y1=".178" x1=".408" id="aK" xlink:href="#a"/><linearGradient y2="-.245" x2=".48" y1=".936" x1=".48" id="aL" xlink:href="#f"/><linearGradient y2=".119" x2="-.224" y1=".113" x1=".449" id="aM" xlink:href="#e"/><linearGradient y2="-.078" x2="1" y1=".556" x1="-.653" id="aN" xlink:href="#b"/><linearGradient y2=".281" x2="-.263" y1=".276" x1=".526" id="aO" xlink:href="#d"/><linearGradient y2=".315" x2="1.437" y1=".308" x1=".829" id="aP" xlink:href="#c"/><linearGradient x2="0" y1=".588" x1="1" id="aQ" xlink:href="#b"/><linearGradient y2=".069" x2="-.263" y1=".056" x1=".422" id="aR" xlink:href="#a"/><linearGradient y2=".194" x2=".373" y1=".148" id="aS" xlink:href="#a"/><linearGradient y2=".345" x2="1.184" y1=".341" x1=".5" id="aT" xlink:href="#a"/><linearGradient y2=".183" x2="-.092" y1=".178" x1=".592" id="aU" xlink:href="#a"/><linearGradient y2=".219" x2=".055" y1=".215" x1=".645" id="aV" xlink:href="#a"/><linearGradient y2=".219" x2=".055" y1=".215" x1=".645" id="aW" xlink:href="#a"/><linearGradient y2=".119" x2="-.224" y1=".113" x1=".449" id="aX" xlink:href="#e"/><linearGradient y2="-.078" x2="1" y1=".556" x1="-.653" id="aY" xlink:href="#b"/><linearGradient y2=".184" x2="-.262" y1=".179" x1=".526" id="aZ" xlink:href="#d"/><linearGradient y2=".315" x2="1.437" y1=".308" x1=".829" id="ba" xlink:href="#c"/><linearGradient x2="0" y1=".588" x1="1" id="bb" xlink:href="#b"/><linearGradient y2=".082" x2=".025" y1=".069" x1=".554" id="bc" xlink:href="#a"/><linearGradient y2=".194" x2=".373" y1=".148" id="bd" xlink:href="#a"/><linearGradient y2=".345" x2="-.185" y1=".341" x1=".5" id="be" xlink:href="#a"/><linearGradient y2=".183" x2="-.092" y1=".178" x1=".592" id="bf" xlink:href="#a"/><linearGradient y2=".219" x2=".055" y1=".215" x1=".645" id="bg" xlink:href="#a"/><linearGradient y2=".119" x2="1.224" y1=".113" x1=".551" id="bh" xlink:href="#e"/><linearGradient y2="-.078" x2="0" y1=".556" x1="1.653" id="bi" xlink:href="#b"/><linearGradient y2=".281" x2="1.263" y1=".276" x1=".474" id="bj" xlink:href="#d"/><linearGradient y2=".315" x2="-.437" y1=".308" x1=".171" id="bk" xlink:href="#c"/><linearGradient x2="1" y1=".588" id="bl" xlink:href="#b"/><linearGradient y2=".069" x2="1.263" y1=".056" x1=".578" id="bm" xlink:href="#a"/><linearGradient y2=".194" x2=".627" y1=".148" x1="1" id="bn" xlink:href="#a"/><linearGradient y2=".345" x2="-.184" y1=".341" x1=".5" id="bo" xlink:href="#a"/><linearGradient y2=".183" x2="1.092" y1=".178" x1=".408" id="bp" xlink:href="#a"/><linearGradient y2=".219" x2=".945" y1=".215" x1=".355" id="bq" xlink:href="#a"/><linearGradient y2=".219" x2=".945" y1=".215" x1=".355" id="br" xlink:href="#a"/><linearGradient y2=".119" x2="1.224" y1=".113" x1=".551" id="bs" xlink:href="#e"/><linearGradient y2="-.078" x2="0" y1=".556" x1="1.653" id="bt" xlink:href="#b"/><linearGradient y2=".184" x2="1.263" y1=".179" x1=".474" id="bu" xlink:href="#d"/><linearGradient y2=".315" x2="-.436" y1=".308" x1=".171" id="bv" xlink:href="#c"/><linearGradient y2=".082" x2=".975" y1=".069" x1=".447" id="bw" xlink:href="#a"/><linearGradient y2=".194" x2=".627" y1=".148" x1="1" id="bx" xlink:href="#a"/><linearGradient y2=".345" x2="1.184" y1=".341" x1=".5" id="by" xlink:href="#a"/><linearGradient y2=".183" x2="1.092" y1=".178" x1=".408" id="bz" xlink:href="#a"/><linearGradient y2="-.004" x2=".517" y1="1.229" x1=".517" id="bA" xlink:href="#g"/></defs><title>Layer 1</title><g><path fill="url(#h)" d="M47.657 152.613c-1.677 2.748-6.883 21.476-8.737 21.156-1.87.094-2.037-4.237-2.258-8.25-.187-3.407-.41-6.587-1.783-6.594-1.704-.01-8.622 11.135-11.68 10.375-.905-.225-.08-6.675-.415-8.562l-3.714 18.53-6.744-16.155-6.032 7.094-4.368-4.125v70.375H108.364v-65.344l-4.37 3.844-6.03-6.594-6.746 15-3.714-17.22c-.335 1.753.49 7.76-.416 7.97-3.057.706-9.975-9.633-11.678-9.625-1.373.007-1.595 2.932-1.783 6.094-.22 3.726-.387 7.776-2.258 7.687-1.855.296-7.06-17.106-8.737-19.657-1.62 2.15 1.504 7.102-1.01 9.25l-2.348-2.094-4.636-8.876-5.973 5.688c-2.515-2.314.61-7.655-1.01-9.97z"/><path fill="url(#i)" d="M14.482 172.298s-5.81 26.747-6.086 40.584c-.15 7.574-3.807 24.898-3.807 24.898l6.344.22s2.393-29.158 2.07-43.045c-.208-8.956 1.478-22.657 1.478-22.657z"/><path fill="url(#j)" d="M22.572 147.52s3.777 33.597 3.535 53.802c-.132 11.06-3.318 36.357-3.318 36.357l5.53.32s2.085-42.577 1.803-62.856c-.18-13.078-7.55-27.623-7.55-27.623z"/><path fill="url(#k)" d="M20.012 157.5s5.632 35.737 3.587 55.382c-.785 7.534-3.808 24.898-3.808 24.898l6.345.22s2.393-29.158 2.07-43.045C28 186 20.012 157.5 20.012 157.5z"/><path fill="url(#l)" d="M10.434 127.123l-3.63 77.875.52 32.99L2.95 238 6 158.12l4.434-30.997z"/><path fill="url(#m)" d="M16.36 159.896s-8.726 32.557-8.484 48.736c.132 8.855 3.318 29.11 3.318 29.11l-5.53.258s-2.086-34.092-1.805-50.33c.18-10.47 12.5-27.774 12.5-27.774z"/><path fill="url(#n)" d="M17.563 137.212l-3.568.31 2.34 59.764-3.213 40.357 5.357.357 1.747-69.773-4.995-28.186 2.33-2.828z"/><path fill="url(#o)" d="M33.39 156.108s-12.48 36.345-12.27 52.524c.118 8.855 2.922 29.11 2.922 29.11l-4.868.258s-1.836-34.092-1.588-50.33c.16-10.47 15.803-31.562 15.803-31.562z"/><path fill="url(#p)" d="M5.832 94.786l-3.57 102.5 3.213 40.357L.118 238l-2.506-98.058 8.22-45.156z"/><path fill="url(#q)" d="M26.15 123.07l4.328 74.216-3.214 40.357 5.357.357 1.75-69.773-8.22-45.157z"/><path fill="url(#r)" d="M5.997 163.813s6.92 35.232 6.642 49.07c-.153 7.573-3.808 24.897-3.808 24.897l6.345.22s2.393-29.158 2.07-43.045c-.208-8.956-11.25-31.142-11.25-31.142z"/><path fill="url(#s)" d="M15.543 163.813s6.92 35.232 6.642 49.07c-.152 7.573-3.807 24.897-3.807 24.897l6.345.22s2.392-29.158 2.07-43.045c-.208-8.956-11.25-31.142-11.25-31.142z"/><path fill="url(#t)" d="M49.29 172.298s-5.81 26.747-6.087 40.584c-.152 7.574-3.807 24.898-3.807 24.898l6.345.22s2.394-29.158 2.07-43.045c-.207-8.956 1.48-22.657 1.48-22.657z"/><path fill="url(#u)" d="M52.905 147.52s3.777 33.597 3.535 53.802c-.132 11.06-3.318 36.357-3.318 36.357l5.53.32s2.086-42.577 1.804-62.856c-.18-13.078-7.55-27.623-7.55-27.623z"/><path fill="url(#v)" d="M44.852 167.046s5.454 26.19 3.41 45.836c-.785 7.534-3.807 24.898-3.807 24.898l6.344.22s2.392-29.158 2.07-43.045c-.21-8.956-8.018-27.91-8.018-27.91z"/><path fill="url(#w)" d="M35.947 127.123l-3.63 77.875.52 32.99-4.376.012 3.054-79.88 4.433-30.997z"/><path fill="url(#x)" d="M44.823 159.896s-8.726 32.557-8.485 48.736c.132 8.855 3.318 29.11 3.318 29.11l-5.53.258s-2.085-34.092-1.804-50.33c.18-10.47 12.5-27.774 12.5-27.774z"/><path fill="url(#y)" d="M51.18 137.39l2.972.13 2.342 59.766-3.215 40.357 5.357.357 1.747-69.773-5.17-32.43-4.034 1.592z"/><path fill="url(#z)" d="M60.34 156.108s-12.48 36.345-12.268 52.524c.117 8.855 2.92 29.11 2.92 29.11l-4.867.258s-1.836-34.092-1.588-50.33c.16-10.47 15.803-31.562 15.803-31.562z"/><path fill="url(#A)" d="M33.936 107.16l3.57 93.644-3.213 36.87 5.357.326 2.506-89.585-8.22-41.255z"/><path fill="url(#B)" d="M41.765 123.07l4.33 74.216-3.215 40.357 5.357.357 1.748-69.773-8.22-45.157z"/><path fill="url(#C)" d="M46.947 163.813s6.92 35.232 6.642 49.07c-.152 7.573-3.807 24.897-3.807 24.897l6.344.22s2.393-29.158 2.07-43.045c-.208-8.956-11.25-31.142-11.25-31.142z"/><path fill="#4d9805" d="M49.892 163.813s6.92 35.232 6.642 49.07c-.15 7.573-3.806 24.897-3.806 24.897l6.344.22s2.393-29.158 2.07-43.045c-.208-8.956-11.25-31.142-11.25-31.142z"/><path fill="url(#D)" d="M73.303 172.298s5.808 26.747 6.085 40.584c.152 7.574 3.807 24.898 3.807 24.898l-6.345.22s-2.392-29.158-2.07-43.045c.21-8.956-1.477-22.657-1.477-22.657z"/><path fill="url(#E)" d="M99.213 147.52s-3.777 33.597-3.536 53.802c.132 11.06 3.318 36.357 3.318 36.357l-5.53.32s-2.085-42.577-1.804-62.856c.182-13.078 7.553-27.623 7.553-27.623z"/><path fill="url(#F)" d="M67.772 157.5s-5.63 35.737-3.587 55.382c.785 7.534 3.807 24.898 3.807 24.898l-6.344.22s-2.393-29.158-2.07-43.045c.208-8.956 8.194-37.455 8.194-37.455z"/><path fill="url(#G)" d="M77.35 127.123l3.63 77.875-.52 32.99 4.375.012-3.052-79.88-4.433-30.997z"/><path fill="url(#H)" d="M71.424 159.896s8.726 32.557 8.485 48.736c-.133 8.855-3.32 29.11-3.32 29.11l5.53.258s2.086-34.092 1.805-50.33c-.18-10.47-12.5-27.774-12.5-27.774z"/><path fill="url(#I)" d="M70.222 137.212l3.568.31-2.342 59.764 3.215 40.357-5.357.357-1.748-69.773 4.994-28.186-2.33-2.828z"/><path fill="url(#J)" d="M87.896 156.108s12.48 36.345 12.267 52.524c-.116 8.855-2.92 29.11-2.92 29.11l4.867.258s1.836-34.092 1.59-50.33c-.16-10.47-15.804-31.562-15.804-31.562z"/><path fill="url(#K)" d="M67.452 94.786l3.572 102.5-3.214 40.357 5.357.357 2.505-98.058-8.22-45.156z"/><path fill="url(#L)" d="M110.135 123.07l-4.33 74.216 3.216 40.357-5.357.357-1.747-69.773 8.22-45.157z"/><path fill="url(#M)" d="M81.788 163.813s-6.92 35.232-6.642 49.07c.15 7.573 3.806 24.897 3.806 24.897l-6.344.22s-2.393-29.158-2.07-43.045c.208-8.956 11.25-31.142 11.25-31.142z"/><path fill="url(#N)" d="M72.242 163.813s-6.92 35.232-6.642 49.07c.15 7.573 3.806 24.897 3.806 24.897l-6.344.22s-2.393-29.158-2.07-43.045c.208-8.956 11.25-31.142 11.25-31.142z"/><path fill="url(#O)" d="M86.996 172.298s5.808 26.747 6.085 40.584c.153 7.574 3.808 24.898 3.808 24.898l-6.345.22s-2.392-29.158-2.07-43.045c.21-8.956-1.477-22.657-1.477-22.657z"/><path fill="url(#P)" d="M83.38 147.52s-3.777 33.597-3.536 53.802c.133 11.06 3.32 36.357 3.32 36.357l-5.532.32s-2.085-42.577-1.804-62.856c.182-13.078 7.552-27.623 7.552-27.623z"/><path fill="url(#Q)" d="M91.433 167.046s-5.455 26.19-3.41 45.836c.784 7.534 3.807 24.898 3.807 24.898l-6.345.22s-2.393-29.158-2.07-43.045c.208-8.956 8.018-27.91 8.018-27.91z"/><path fill="url(#R)" d="M101.838 127.123l3.63 77.875-.52 32.99 4.375.012-3.052-79.88-4.432-30.997z"/><path fill="url(#S)" d="M85.105 137.39l-2.973.13-2.34 59.766 3.213 40.357-5.357.357-1.748-69.773 5.17-32.43 4.035 1.592z"/><path fill="url(#T)" d="M75.945 156.108s12.48 36.345 12.267 52.524c-.116 8.855-2.92 29.11-2.92 29.11l4.867.258s1.835-34.092 1.587-50.33c-.16-10.47-15.802-31.562-15.802-31.562z"/><path fill="url(#U)" d="M102.35 107.16l-3.573 93.644 3.215 36.87-5.358.326-2.505-89.585 8.22-41.255z"/><path fill="url(#V)" d="M94.52 123.07l-4.33 74.216 3.215 40.357-5.357.357-1.748-69.773 8.22-45.157z"/></g><g><path fill="url(#W)" d="M169.09 152.613c1.677 2.748 6.883 21.476 8.737 21.156 1.87.094 2.037-4.237 2.258-8.25.188-3.407.41-6.587 1.783-6.594 1.703-.01 8.62 11.135 11.678 10.375.906-.225.08-6.675.416-8.562l3.714 18.53 6.745-16.155 6.033 7.094 4.368-4.125v70.375H108.385v-65.344l4.368 3.844 6.032-6.594 6.745 15 3.713-17.22c.335 1.753-.49 7.76.416 7.97 3.056.706 9.974-9.633 11.677-9.625 1.373.007 1.596 2.932 1.783 6.094.22 3.726.387 7.776 2.258 7.687 1.854.296 7.06-17.106 8.737-19.657 1.62 2.15-1.505 7.102 1.01 9.25l2.347-2.094 4.636-8.876 5.972 5.688c2.515-2.314-.61-7.655 1.01-9.97z"/><path fill="url(#X)" d="M202.265 172.298s5.81 26.747 6.086 40.584c.153 7.574 3.808 24.898 3.808 24.898l-6.345.22s-2.393-29.158-2.07-43.045c.208-8.956-1.478-22.657-1.478-22.657z"/><path fill="url(#Y)" d="M194.175 147.52s-3.777 33.597-3.535 53.802c.132 11.06 3.318 36.357 3.318 36.357l-5.53.32s-2.086-42.577-1.804-62.856c.18-13.078 7.55-27.623 7.55-27.623z"/><path fill="url(#Z)" d="M196.735 157.5s-5.632 35.737-3.587 55.382c.784 7.534 3.807 24.898 3.807 24.898l-6.345.22s-2.392-29.158-2.07-43.045c.208-8.956 8.195-37.455 8.195-37.455z"/><path fill="url(#aa)" d="M206.313 127.123l3.63 77.875-.52 32.99 4.375.012-3.052-79.88-4.433-30.997z"/><path fill="url(#ab)" d="M200.386 159.896s8.727 32.557 8.485 48.736c-.13 8.855-3.317 29.11-3.317 29.11l5.53.258s2.086-34.092 1.805-50.33c-.182-10.47-12.502-27.774-12.502-27.774z"/><path fill="url(#ac)" d="M199.184 137.212l3.57.31-2.343 59.764 3.215 40.357-5.357.357-1.747-69.773 4.995-28.186-2.33-2.828z"/><path fill="url(#ad)" d="M183.36 156.108s12.48 36.345 12.266 52.524c-.116 8.855-2.92 29.11-2.92 29.11l4.867.258s1.836-34.092 1.588-50.33c-.158-10.47-15.8-31.562-15.8-31.562z"/><path fill="url(#ae)" d="M210.915 94.786l3.572 102.5-3.215 40.357 5.357.357 2.505-98.058-8.22-45.156z"/><path fill="url(#af)" d="M190.598 123.07l-4.33 74.216 3.215 40.357-5.357.357-1.748-69.773 8.22-45.157z"/><path fill="url(#ag)" d="M210.75 163.813s-6.92 35.232-6.642 49.07c.152 7.573 3.807 24.897 3.807 24.897l-6.344.22s-2.392-29.158-2.07-43.045c.21-8.956 11.25-31.142 11.25-31.142z"/><path fill="url(#ah)" d="M201.205 163.813s-6.92 35.232-6.643 49.07c.152 7.573 3.807 24.897 3.807 24.897l-6.345.22s-2.393-29.158-2.07-43.045c.208-8.956 11.25-31.142 11.25-31.142z"/><path fill="url(#ai)" d="M167.458 172.298s5.81 26.747 6.086 40.584c.152 7.574 3.807 24.898 3.807 24.898l-6.344.22s-2.393-29.158-2.07-43.045c.208-8.956-1.478-22.657-1.478-22.657z"/><path fill="url(#aj)" d="M163.843 147.52s-3.777 33.597-3.536 53.802c.132 11.06 3.318 36.357 3.318 36.357l-5.53.32s-2.085-42.577-1.804-62.856c.182-13.078 7.553-27.623 7.553-27.623z"/><path fill="url(#ak)" d="M171.896 167.046s-5.455 26.19-3.41 45.836c.784 7.534 3.807 24.898 3.807 24.898l-6.345.22s-2.393-29.158-2.07-43.045c.208-8.956 8.018-27.91 8.018-27.91z"/><path fill="url(#al)" d="M180.8 127.123l3.63 77.875-.52 32.99 4.376.012-3.052-79.88-4.433-30.997z"/><path fill="url(#am)" d="M171.924 159.896s8.727 32.557 8.485 48.736c-.133 8.855-3.32 29.11-3.32 29.11l5.53.258s2.087-34.092 1.805-50.33c-.18-10.47-12.5-27.774-12.5-27.774z"/><path fill="url(#an)" d="M165.568 137.39l-2.973.13-2.34 59.766 3.213 40.357-5.357.357-1.747-69.773 5.17-32.43 4.035 1.592z"/><path fill="url(#ao)" d="M156.407 156.108s12.48 36.345 12.268 52.524c-.117 8.855-2.92 29.11-2.92 29.11l4.867.258s1.836-34.092 1.588-50.33c-.16-10.47-15.803-31.562-15.803-31.562z"/><path fill="url(#ap)" d="M182.81 107.16l-3.57 93.644 3.214 36.87-5.357.326-2.505-89.585 8.22-41.255z"/><path fill="url(#aq)" d="M174.982 123.07l-4.33 74.216 3.215 40.357-5.357.357-1.747-69.773 8.22-45.157z"/><path fill="url(#ar)" d="M169.8 163.813s-6.92 35.232-6.642 49.07c.152 7.573 3.807 24.897 3.807 24.897l-6.345.22s-2.393-29.158-2.07-43.045c.208-8.956 11.25-31.142 11.25-31.142z"/><path fill="#4d9805" d="M166.855 163.813s-6.92 35.232-6.642 49.07c.152 7.573 3.807 24.897 3.807 24.897l-6.345.22s-2.393-29.158-2.07-43.045c.208-8.956 11.25-31.142 11.25-31.142z"/><path fill="url(#as)" d="M143.445 172.298s-5.81 26.747-6.086 40.584c-.153 7.574-3.808 24.898-3.808 24.898l6.345.22s2.393-29.158 2.07-43.045c-.208-8.956 1.478-22.657 1.478-22.657z"/><path fill="url(#at)" d="M117.534 147.52s3.778 33.597 3.536 53.802c-.132 11.06-3.318 36.357-3.318 36.357l5.53.32s2.086-42.577 1.804-62.856c-.18-13.078-7.552-27.623-7.552-27.623z"/><path fill="url(#au)" d="M148.975 157.5s5.632 35.737 3.587 55.382c-.784 7.534-3.807 24.898-3.807 24.898l6.345.22s2.392-29.158 2.07-43.045c-.208-8.956-8.195-37.455-8.195-37.455z"/><path fill="url(#av)" d="M139.397 127.123l-3.63 77.875.52 32.99-4.375.012 3.052-79.88 4.433-30.997z"/><path fill="url(#aw)" d="M145.324 159.896s-8.727 32.557-8.485 48.736c.13 8.855 3.317 29.11 3.317 29.11l-5.53.258s-2.086-34.092-1.805-50.33c.182-10.47 12.502-27.774 12.502-27.774z"/><path fill="url(#ax)" d="M146.526 137.212l-3.57.31 2.343 59.764-3.216 40.357 5.358.357 1.747-69.773-4.995-28.186 2.33-2.828z"/><path fill="url(#ay)" d="M128.85 156.108s-12.48 36.345-12.266 52.524c.116 8.855 2.92 29.11 2.92 29.11l-4.867.258s-1.836-34.092-1.588-50.33c.158-10.47 15.8-31.562 15.8-31.562z"/><path fill="url(#az)" d="M149.295 94.786l-3.572 102.5 3.215 40.357-5.358.357-2.505-98.058 8.22-45.156z"/><path fill="url(#aA)" d="M106.612 123.07l4.33 74.216-3.215 40.357 5.357.357 1.748-69.773-8.22-45.157z"/><path fill="url(#aB)" d="M134.96 163.813s6.92 35.232 6.642 49.07c-.152 7.573-3.807 24.897-3.807 24.897l6.344.22s2.392-29.158 2.07-43.045c-.21-8.956-11.25-31.142-11.25-31.142z"/><path fill="url(#aC)" d="M144.505 163.813s6.92 35.232 6.643 49.07c-.152 7.573-3.807 24.897-3.807 24.897l6.345.22s2.393-29.158 2.07-43.045c-.208-8.956-11.25-31.142-11.25-31.142z"/><path fill="url(#aD)" d="M129.752 172.298s-5.81 26.747-6.086 40.584c-.152 7.574-3.807 24.898-3.807 24.898l6.344.22s2.393-29.158 2.07-43.045c-.208-8.956 1.478-22.657 1.478-22.657z"/><path fill="url(#aE)" d="M133.367 147.52s3.777 33.597 3.536 53.802c-.132 11.06-3.318 36.357-3.318 36.357l5.53.32s2.085-42.577 1.804-62.856c-.182-13.078-7.553-27.623-7.553-27.623z"/><path fill="url(#aF)" d="M125.314 167.046s5.455 26.19 3.41 45.836c-.784 7.534-3.807 24.898-3.807 24.898l6.345.22s2.393-29.158 2.07-43.045c-.208-8.956-8.018-27.91-8.018-27.91z"/><path fill="url(#aG)" d="M114.91 127.123l-3.63 77.875.52 32.99-4.376.012 3.052-79.88 4.433-30.997z"/><path fill="url(#aH)" d="M131.642 137.39l2.973.13 2.34 59.766-3.213 40.357 5.357.357 1.747-69.773-5.17-32.43-4.035 1.592z"/><path fill="url(#aI)" d="M140.803 156.108s-12.48 36.345-12.268 52.524c.117 8.855 2.92 29.11 2.92 29.11l-4.867.258s-1.836-34.092-1.588-50.33c.16-10.47 15.803-31.562 15.803-31.562z"/><path fill="url(#aJ)" d="M114.4 107.16l3.57 93.644-3.214 36.87 5.357.326 2.505-89.585-8.22-41.255z"/><path fill="url(#aK)" d="M122.228 123.07l4.33 74.216-3.216 40.357 5.358.357 1.747-69.773-8.22-45.157z"/></g><g><path fill="url(#aL)" d="M263.157 152.613c-1.677 2.748-6.883 21.476-8.737 21.156-1.87.094-2.037-4.237-2.258-8.25-.187-3.407-.41-6.587-1.783-6.594-1.704-.01-8.622 11.135-11.68 10.375-.905-.225-.08-6.675-.415-8.562l-3.714 18.53-6.744-16.155-6.032 7.094-4.368-4.125v70.375H323.864v-65.344l-4.37 3.844-6.03-6.594-6.746 15-3.714-17.22c-.335 1.753.49 7.76-.416 7.97-3.057.706-9.975-9.633-11.678-9.625-1.373.007-1.595 2.932-1.783 6.094-.22 3.726-.387 7.776-2.258 7.687-1.855.296-7.06-17.106-8.737-19.657-1.62 2.15 1.504 7.102-1.01 9.25l-2.348-2.094-4.636-8.876-5.973 5.688c-2.515-2.314.61-7.655-1.01-9.97z"/><path fill="url(#aM)" d="M229.982 172.298s-5.81 26.747-6.086 40.584c-.15 7.574-3.807 24.898-3.807 24.898l6.344.22s2.393-29.158 2.07-43.045c-.208-8.956 1.478-22.657 1.478-22.657z"/><path fill="url(#aN)" d="M238.072 147.52s3.777 33.597 3.535 53.802c-.132 11.06-3.318 36.357-3.318 36.357l5.53.32s2.085-42.577 1.803-62.856c-.18-13.078-7.55-27.623-7.55-27.623z"/><path fill="url(#aO)" d="M235.512 157.5s5.632 35.737 3.587 55.382c-.785 7.534-3.808 24.898-3.808 24.898l6.345.22s2.393-29.158 2.07-43.045c-.208-8.956-8.195-37.455-8.195-37.455z"/><path fill="url(#aP)" d="M225.934 127.123l-3.63 77.875.52 32.99-4.375.012 3.05-79.88 4.434-30.997z"/><path fill="url(#aQ)" d="M231.86 159.896s-8.726 32.557-8.484 48.736c.132 8.855 3.318 29.11 3.318 29.11l-5.53.258s-2.086-34.092-1.805-50.33c.18-10.47 12.5-27.774 12.5-27.774z"/><path fill="url(#aR)" d="M233.063 137.212l-3.568.31 2.34 59.764-3.213 40.357 5.357.357 1.747-69.773-4.995-28.186 2.33-2.828z"/><path fill="url(#aS)" d="M248.89 156.108s-12.48 36.345-12.27 52.524c.118 8.855 2.922 29.11 2.922 29.11l-4.868.258s-1.836-34.092-1.588-50.33c.16-10.47 15.803-31.562 15.803-31.562z"/><path fill="url(#aT)" d="M221.332 94.786l-3.57 102.5 3.213 40.357-5.357.357-2.506-98.058 8.22-45.156z"/><path fill="url(#aU)" d="M241.65 123.07l4.328 74.216-3.214 40.357 5.357.357 1.75-69.773-8.22-45.157z"/><path fill="url(#aV)" d="M221.497 163.813s6.92 35.232 6.642 49.07c-.153 7.573-3.808 24.897-3.808 24.897l6.345.22s2.393-29.158 2.07-43.045c-.208-8.956-11.25-31.142-11.25-31.142z"/><path fill="url(#aW)" d="M231.043 163.813s6.92 35.232 6.642 49.07c-.152 7.573-3.807 24.897-3.807 24.897l6.345.22s2.392-29.158 2.07-43.045c-.208-8.956-11.25-31.142-11.25-31.142z"/><path fill="url(#aX)" d="M264.79 172.298s-5.81 26.747-6.087 40.584c-.152 7.574-3.807 24.898-3.807 24.898l6.345.22s2.394-29.158 2.07-43.045c-.207-8.956 1.48-22.657 1.48-22.657z"/><path fill="url(#aY)" d="M268.405 147.52s3.777 33.597 3.535 53.802c-.132 11.06-3.318 36.357-3.318 36.357l5.53.32s2.086-42.577 1.804-62.856c-.18-13.078-7.55-27.623-7.55-27.623z"/><path fill="url(#aZ)" d="M260.352 167.046s5.454 26.19 3.41 45.836c-.785 7.534-3.807 24.898-3.807 24.898l6.344.22s2.392-29.158 2.07-43.045c-.21-8.956-8.018-27.91-8.018-27.91z"/><path fill="url(#ba)" d="M251.447 127.123l-3.63 77.875.52 32.99-4.376.012 3.054-79.88 4.433-30.997z"/><path fill="url(#bb)" d="M260.323 159.896s-8.726 32.557-8.485 48.736c.132 8.855 3.318 29.11 3.318 29.11l-5.53.258s-2.085-34.092-1.804-50.33c.18-10.47 12.5-27.774 12.5-27.774z"/><path fill="url(#bc)" d="M266.68 137.39l2.972.13 2.342 59.766-3.215 40.357 5.357.357 1.747-69.773-5.17-32.43-4.034 1.592z"/><path fill="url(#bd)" d="M275.84 156.108s-12.48 36.345-12.268 52.524c.117 8.855 2.92 29.11 2.92 29.11l-4.867.258s-1.836-34.092-1.588-50.33c.16-10.47 15.803-31.562 15.803-31.562z"/><path fill="url(#be)" d="M249.436 107.16l3.57 93.644-3.213 36.87 5.357.326 2.506-89.585-8.22-41.255z"/><path fill="url(#bf)" d="M257.265 123.07l4.33 74.216-3.215 40.357 5.357.357 1.748-69.773-8.22-45.157z"/><path fill="url(#bg)" d="M262.447 163.813s6.92 35.232 6.642 49.07c-.152 7.573-3.807 24.897-3.807 24.897l6.344.22s2.393-29.158 2.07-43.045c-.208-8.956-11.25-31.142-11.25-31.142z"/><path fill="#4d9805" d="M265.392 163.813s6.92 35.232 6.642 49.07c-.15 7.573-3.806 24.897-3.806 24.897l6.344.22s2.393-29.158 2.07-43.045c-.208-8.956-11.25-31.142-11.25-31.142z"/><path fill="url(#bh)" d="M288.803 172.298s5.808 26.747 6.085 40.584c.152 7.574 3.807 24.898 3.807 24.898l-6.345.22s-2.392-29.158-2.07-43.045c.21-8.956-1.477-22.657-1.477-22.657z"/><path fill="url(#bi)" d="M314.713 147.52s-3.777 33.597-3.536 53.802c.133 11.06 3.318 36.357 3.318 36.357l-5.53.32s-2.085-42.577-1.804-62.856c.182-13.078 7.553-27.623 7.553-27.623z"/><path fill="url(#bj)" d="M283.272 157.5s-5.63 35.737-3.587 55.382c.785 7.534 3.807 24.898 3.807 24.898l-6.344.22s-2.393-29.158-2.07-43.045c.208-8.956 8.194-37.455 8.194-37.455z"/><path fill="url(#bk)" d="M292.85 127.123l3.63 77.875-.52 32.99 4.376.012-3.053-79.88-4.433-30.997z"/><path fill="url(#bl)" d="M286.924 159.896s8.726 32.557 8.485 48.736c-.134 8.855-3.32 29.11-3.32 29.11l5.53.258s2.086-34.092 1.805-50.33c-.18-10.47-12.5-27.774-12.5-27.774z"/><path fill="url(#bm)" d="M285.722 137.212l3.568.31-2.342 59.764 3.215 40.357-5.357.357-1.748-69.773 4.994-28.186-2.33-2.828z"/><path fill="url(#bn)" d="M303.396 156.108s12.48 36.345 12.267 52.524c-.116 8.855-2.92 29.11-2.92 29.11l4.867.258s1.836-34.092 1.59-50.33c-.16-10.47-15.804-31.562-15.804-31.562z"/><path fill="url(#bo)" d="M282.952 94.786l3.572 102.5-3.214 40.357 5.357.357 2.505-98.058-8.22-45.156z"/><path fill="url(#bp)" d="M325.635 123.07l-4.33 74.216 3.216 40.357-5.357.357-1.747-69.773 8.22-45.157z"/><path fill="url(#bq)" d="M297.288 163.813s-6.92 35.232-6.642 49.07c.15 7.573 3.806 24.897 3.806 24.897l-6.344.22s-2.393-29.158-2.07-43.045c.208-8.956 11.25-31.142 11.25-31.142z"/><path fill="url(#br)" d="M287.742 163.813s-6.92 35.232-6.642 49.07c.15 7.573 3.806 24.897 3.806 24.897l-6.344.22s-2.393-29.158-2.07-43.045c.208-8.956 11.25-31.142 11.25-31.142z"/><path fill="url(#bs)" d="M302.496 172.298s5.808 26.747 6.085 40.584c.153 7.574 3.808 24.898 3.808 24.898l-6.345.22s-2.392-29.158-2.07-43.045c.21-8.956-1.477-22.657-1.477-22.657z"/><path fill="url(#bt)" d="M298.88 147.52s-3.777 33.597-3.536 53.802c.133 11.06 3.32 36.357 3.32 36.357l-5.532.32s-2.085-42.577-1.804-62.856c.182-13.078 7.552-27.623 7.552-27.623z"/><path fill="url(#bu)" d="M306.933 167.046s-5.455 26.19-3.41 45.836c.784 7.534 3.807 24.898 3.807 24.898l-6.345.22s-2.393-29.158-2.07-43.045c.208-8.956 8.018-27.91 8.018-27.91z"/><path fill="url(#bv)" d="M317.338 127.123l3.63 77.875-.52 32.99 4.375.012-3.052-79.88-4.432-30.997z"/><path fill="url(#bw)" d="M300.605 137.39l-2.973.13-2.34 59.766 3.213 40.357-5.357.357-1.748-69.773 5.17-32.43 4.035 1.592z"/><path fill="url(#bx)" d="M291.445 156.108s12.48 36.345 12.267 52.524c-.116 8.855-2.92 29.11-2.92 29.11l4.867.258s1.835-34.092 1.587-50.33c-.16-10.47-15.802-31.562-15.802-31.562z"/><path fill="url(#by)" d="M317.85 107.16l-3.573 93.644 3.215 36.87-5.358.326-2.505-89.585 8.22-41.255z"/><path fill="url(#bz)" d="M310.02 123.07l-4.33 74.216 3.215 40.357-5.357.357-1.748-69.773 8.22-45.157z"/></g><path fill="url(#bA)" d="M-1.293 216.12h327v22.5h-327z"/></svg>