<svg viewBox="0 0 744.09448819 1052.3622047" xmlns="http://www.w3.org/2000/svg" xmlns:xlink="http://www.w3.org/1999/xlink"><defs><filter id="c"><feGaussianBlur stdDeviation="9.761"/></filter><linearGradient id="a"><stop offset="0" stop-color="#fff"/><stop offset="1" stop-color="#fff" stop-opacity="0"/></linearGradient><linearGradient id="b"><stop offset="0" stop-color="#1a1a1a"/><stop offset="1" stop-color="#1a1a1a" stop-opacity="0"/></linearGradient><linearGradient gradientUnits="userSpaceOnUse" id="d" x1="634.881" x2="644.982" y1="197.016" y2="175.55"><stop offset="0"/><stop offset="1" stop-opacity="0"/></linearGradient><linearGradient gradientUnits="userSpaceOnUse" id="f" x1="496.995" x2="466.69" y1="418.997" y2="393.743"><stop offset="0" stop-color="#333"/><stop offset="1" stop-color="#333" stop-opacity="0"/></linearGradient><linearGradient gradientUnits="userSpaceOnUse" id="e" x1="664.68" x2="650.791" xlink:href="#a" y1="137.417" y2="169.236"/><linearGradient gradientUnits="userSpaceOnUse" id="g" x1="412.142" x2="452.548" xlink:href="#a" y1="382.631" y2="411.925"/><linearGradient gradientUnits="userSpaceOnUse" id="h" x1="241.426" x2="212.132" xlink:href="#b" y1="236.159" y2="208.885"/><linearGradient gradientUnits="userSpaceOnUse" id="i" x1="166.675" x2="197.99" xlink:href="#a" y1="200.804" y2="226.057"/><linearGradient gradientUnits="userSpaceOnUse" id="j" x1="625.296" x2="558.153" xlink:href="#b" y1="221.857" y2="187.571"/><radialGradient cx="209.19" cy="708.226" gradientTransform="matrix(1 0 0 .828 0 122.027)" gradientUnits="userSpaceOnUse" id="k" r="138.303" xlink:href="#a"/><radialGradient cx="209.19" cy="708.226" gradientTransform="matrix(.804 0 0 .652 38.198 247.819)" gradientUnits="userSpaceOnUse" id="l" r="138.303" xlink:href="#a"/></defs><g fill="#1a1a1a" filter="url(#c)"><path d="M613.163 144.993l-6.314 27.02c16.356 19.95 43.943 24.708 71.467 29.548l11.617-25.758c-22.637-15.37-46.788-28.128-76.77-30.81zM613.163 144.993l-6.314 27.02c16.356 19.95 43.943 24.708 71.467 29.548l11.617-25.758c-22.637-15.37-46.788-28.128-76.77-30.81zM613.163 144.993l-6.314 27.02c16.356 19.95 43.943 24.708 71.467 29.548l11.617-25.758c-22.637-15.37-46.788-28.128-76.77-30.81zM281.833 665.474c5.514-19.028 8.28-38.055 26.62-57.083 101.122-115.77 205.6-228.184 296.628-354.048 42.985-10.48 74.177-31.627 88.895-67.68.637-10.123-1.662-15.107-9.092-11.112l-25.253 23.233c-16.983 22.84-44.51 34.516-72.73 45.457 2.223-27.72 4.703-55.242 19.944-72.736 1.9-2.18.715-7.49 3.036-9.34l.27-4.29 3.013-13.386c-1.336.765-4.667-.697-5.954.16-23.515 15.663-38.807 46.802-41.525 101.612C460.338 356.473 379.22 477.07 291.412 594.8c-11.793 24.697-16.62 47.654-17.66 69.664zM281.833 665.474c5.514-19.028 8.28-38.055 26.62-57.083 101.122-115.77 205.6-228.184 296.628-354.048 42.985-10.48 74.177-31.627 88.895-67.68.637-10.123-1.662-15.107-9.092-11.112l-25.253 23.233c-16.983 22.84-44.51 34.516-72.73 45.457 2.223-27.72 4.703-55.242 19.944-72.736 1.9-2.18.715-7.49 3.036-9.34l.27-4.29 3.013-13.386c-1.336.765-4.667-.697-5.954.16-23.515 15.663-38.807 46.802-41.525 101.612C460.338 356.473 379.22 477.07 291.412 594.8c-11.793 24.697-16.62 47.654-17.66 69.664zM281.833 665.474c5.514-19.028 8.28-38.055 26.62-57.083 101.122-115.77 205.6-228.184 296.628-354.048 42.985-10.48 74.177-31.627 88.895-67.68.637-10.123-1.662-15.107-9.092-11.112l-25.253 23.233c-16.983 22.84-44.51 34.516-72.73 45.457 2.223-27.72 4.703-55.242 19.944-72.736 1.9-2.18.715-7.49 3.036-9.34l.27-4.29 3.013-13.386c-1.336.765-4.667-.697-5.954.16-23.515 15.663-38.807 46.802-41.525 101.612C460.338 356.473 379.22 477.07 291.412 594.8c-11.793 24.697-16.62 47.654-17.66 69.664zM502.952 316.415c-46.356 52.274-88.287 106.438-128.938 161.157 12.85 5.592 22.81 13.143 31.188 21.718 45.28-51.835 89.913-104.346 132.343-159.03-8.937-10.867-21.023-18.19-34.593-23.845zM502.952 316.415c-46.356 52.274-88.287 106.438-128.938 161.157 12.85 5.592 22.81 13.143 31.188 21.718 45.28-51.835 89.913-104.346 132.343-159.03-8.937-10.867-21.023-18.19-34.593-23.845zM502.952 316.415c-46.356 52.274-88.287 106.438-128.938 161.157 12.85 5.592 22.81 13.143 31.188 21.718 45.28-51.835 89.913-104.346 132.343-159.03-8.937-10.867-21.023-18.19-34.593-23.845zM202.03 593.753c45.414 45.2 89.66 94.78 145.462 101.015C273.63 783.49 190.28 837.72 86.872 819.018c-52.406-110.694 34.01-166.947 115.16-225.265zM610.314 152.19c-28.284 30.518-30.65 63.29-28.313 96.47l4.876-4.844c2.22-27.646 4.706-55.083 19.906-72.53 1.9-2.182.742-7.463 3.063-9.313l.25-4.313 1.125-4.937-.906-.532zM202.03 593.753c45.414 45.2 89.66 94.78 145.462 101.015C273.63 783.49 190.28 837.72 86.872 819.018c-52.406-110.694 34.01-166.947 115.16-225.265zM200.578 619.467c36.5 35.61 72.063 74.673 116.914 79.585-59.367 69.9-126.36 112.624-209.47 97.89-42.123-87.21 27.333-131.53 92.556-177.475z"/></g><path d="M601.734 123.564l-6.313 27.022c16.357 19.95 43.944 24.706 71.47 29.547l11.616-25.76c-22.637-15.37-46.788-28.128-76.772-30.81z" fill="#803300"/><path d="M601.734 123.564l-6.313 27.022c16.357 19.95 43.944 24.706 71.47 29.547l11.616-25.76c-22.637-15.37-46.788-28.128-76.772-30.81z" fill="url(#d)"/><path d="M601.734 123.564l-6.313 27.022c16.357 19.95 43.944 24.706 71.47 29.547l11.616-25.76c-22.637-15.37-46.788-28.128-76.772-30.81z" fill="url(#e)"/><path d="M270.404 644.045c5.515-19.027 8.282-38.055 26.62-57.082 101.122-115.77 205.6-228.186 296.63-354.05 42.983-10.48 74.175-31.627 88.892-67.68.638-10.123-1.66-15.107-9.09-11.112L648.2 177.356c-16.982 22.84-44.51 34.515-72.73 45.457 2.225-27.72 4.704-55.242 19.945-72.736 1.9-2.18.715-7.49 3.036-9.34l.273-4.29 3.01-13.387c-1.334.765-4.666-.697-5.953.16-23.514 15.663-38.806 46.802-41.523 101.612C448.91 335.044 367.792 455.642 279.983 573.37c-11.793 24.698-16.62 47.655-17.66 69.665z" fill="#999"/><path d="M270.404 644.045c5.515-19.027 8.282-38.055 26.62-57.082 101.122-115.77 205.6-228.186 296.63-354.05 42.983-10.48 74.175-31.627 88.892-67.68.638-10.123-1.66-15.107-9.09-11.112L648.2 177.356c-16.982 22.84-44.51 34.515-72.73 45.457 2.225-27.72 4.704-55.242 19.945-72.736 1.9-2.18.715-7.49 3.036-9.34l.273-4.29 3.01-13.387c-1.334.765-4.666-.697-5.953.16-23.514 15.663-38.806 46.802-41.523 101.612C448.91 335.044 367.792 455.642 279.983 573.37c-11.793 24.698-16.62 47.655-17.66 69.665z" fill="url(#f)"/><path d="M270.404 644.045c5.515-19.027 8.282-38.055 26.62-57.082 101.122-115.77 205.6-228.186 296.63-354.05 42.983-10.48 74.175-31.627 88.892-67.68.638-10.123-1.66-15.107-9.09-11.112L648.2 177.356c-16.982 22.84-44.51 34.515-72.73 45.457 2.225-27.72 4.704-55.242 19.945-72.736 1.9-2.18.715-7.49 3.036-9.34l.273-4.29 3.01-13.387c-1.334.765-4.666-.697-5.953.16-23.514 15.663-38.806 46.802-41.523 101.612C448.91 335.044 367.792 455.642 279.983 573.37c-11.793 24.698-16.62 47.655-17.66 69.665z" fill="url(#g)"/><path d="M491.523 294.987c-46.356 52.273-88.287 106.438-128.938 161.156 12.85 5.593 22.81 13.143 31.188 21.72 45.28-51.836 89.913-104.348 132.343-159.032-8.937-10.866-21.023-18.19-34.593-23.843z" fill="#520"/><path d="M491.523 294.987c-46.356 52.273-88.287 106.438-128.938 161.156 12.85 5.593 22.81 13.143 31.188 21.72 45.28-51.836 89.913-104.348 132.343-159.032-8.937-10.866-21.023-18.19-34.593-23.843z" fill="url(#h)"/><path d="M491.523 294.987c-46.356 52.273-88.287 106.438-128.938 161.156 12.85 5.593 22.81 13.143 31.188 21.72 45.28-51.836 89.913-104.348 132.343-159.032-8.937-10.866-21.023-18.19-34.593-23.843z" fill="url(#i)"/><path d="M190.602 572.324c45.413 45.2 89.658 94.78 145.462 101.016C262.2 762.063 178.85 816.292 75.444 797.588c-52.407-110.693 34.01-166.946 115.158-225.264z" fill="#1a1a1a"/><path d="M598.885 130.763c-28.284 30.517-30.65 63.29-28.312 96.47l4.875-4.845c2.22-27.647 4.706-55.084 19.906-72.53 1.9-2.182.742-7.464 3.062-9.314l.25-4.312 1.125-4.938-.905-.53z" fill="url(#j)"/><path d="M190.602 572.324c45.413 45.2 89.658 94.78 145.462 101.016C262.2 762.063 178.85 816.292 75.444 797.588c-52.407-110.693 34.01-166.946 115.158-225.264z" fill="url(#k)"/><path d="M189.15 598.04c36.5 35.61 72.062 74.67 116.914 79.583-59.368 69.9-126.36 112.625-209.47 97.89-42.123-87.21 27.333-131.53 92.556-177.474z" fill="url(#l)"/></svg>