<?xml version="1.0" encoding="utf8" standalone="no"?>
<svg height="230.34375" viewBox="-0.736 -0.5 512 454" width="328.75" xml:space="preserve" xmlns="http://www.w3.org/2000/svg"><defs>
	
		
		
		
		
		
		
		
		
	</defs>
	
	<path d="m197.7622.0694c-.67976,0-1.35217.07798-2.0231.18392-5.08498.70625-10.19891,2.00199-15.14261,3.55575-4.51998,1.55374-8.77268,3.94272-12.44514,7.0502s-6.04282,7.3121-7.17282,11.83208c-.98874,4.09623-.98874,8.22632 0,12.32253 .98875,3.67248 3.10307,7.02125 6.06931,9.56375 1.55374,1.27124 2.68424,2.86569 3.24922,4.84318 .8475,2.68374 1.68471,5.366 2.39094,7.90849 1.83624,6.92122 5.64899,13.11753 11.15771,17.77877 2.40124,2.11874 5.65929,2.85198 8.76678,2.14571 .2825-.14125.5758-.18392.85828-.18392 .98875,0 1.94856.43993 2.51355,1.28743s.9809,1.83134.9809,2.82008c0,.70625-.08532,1.3968-.36784,1.96179-.70624,1.69499-1.2928,3.43609-1.71657,5.27233-.98874,4.51998-1.44733,9.19395-1.16481,13.85518s1.72491,9.16452 3.98489,13.1195l10.60596,18.08531 7.78588,16.67526c.84749,1.27124 1.26879,2.80733 1.41004,6.62106 0,2.25999.12261,4.34489.12261,5.33363v3.86229c0,6.35622-.31732,12.40345-1.16482,18.75967-.56499,4.80247-.96226,9.60446-1.10351,14.40694-.28249,6.21497-.55715,12.30485-.98089,18.94359-.2825,4.51998-1.16235,9.15127-2.57486,13.67126-.42375,1.55374-1.24231,3.14278-2.51355,4.41404l-11.58686,10.85118-7.35673,6.49845c-12.57119,5.64997-24.58279,12.5903-35.74146,20.78277l-9.13461,6.62106-4.84319,5.21102-8.76677,7.35674-7.17282-2.82008c-16.10241,10.31119-32.78013,19.76854-50.57754,28.38473l-3.9849,1.96179c-5.79122-5.22622-12.24898-9.58827-19.31143-13.11951-3.81373-1.83624-7.90115-3.40667-12.13861-4.53665-8.19246-2.11874-16.8067.57137-22.31542,6.92759-4.09623,4.66123-7.78097,9.87913-10.60596,15.38784-1.27124,2.40123-3.11631,4.39293-5.51755,5.94669-1.97749,1.12999-3.8412,2.71905-5.39494,4.41404-3.95498,4.09623-7.29052,8.48231-10.11551,13.42604-2.82499,4.66122-6.09383,9.12727-9.62506,13.36473-1.83624,2.11874-3.51603,4.40376-5.21102,6.80498-1.69499,2.54249-3.38802,5.3714-4.65926,8.33763l-5.27233,11.46424-1.41004,2.39094c-.70625.42375-1.25015.80236-1.53265,1.22612-2.25999,3.67249-4.52635,7.20274-6.92759,11.15772-3.53123,5.79122-6.48275,12.17688-8.46024,18.39183-2.68374,7.62746-5.11537,15.53301-7.23412,23.72547l-1.41004,5.64016h644.9403v-11.83208l-71.60553-.30653c-3.24874-.565-6.51219-1.98877-9.19592-4.10751-14.12493-11.58244-25.26991-26.27088-32.61485-43.22081-1.13-2.54249-2.95105-4.63816-5.21102-6.19192-2.82499-1.83624-6.06978-2.82006-9.31853-2.82008-2.54249-.14125-5.0673.7146-6.62106,2.26833-.98875.70624-1.99662,1.52484-3.12661,2.51355-4.23748,3.67248-8.91146,6.75742-13.85519,9.44114l-5.64016,3.12661-5.21102,2.26833c-1.27124.70624-2.27913,1.54342-3.12661,2.39094-1.12999,1.27124-1.67388,2.84166-1.53265,4.53665 0,1.83624.26927,3.82254.55175,5.51755 .14125.42375.1226.67976.12262,1.10351 0,1.55374-.69058,3.11874-1.9618,4.10751l-8.33763,6.80498-1.41004.12261c-3.38999,0-6.23459-2.6793-6.37584-6.06931l-.24522-9.31853 .55175-19.49534 .42915-21.028-.30654-18.39183c0-1.27124.18392-2.5111.18392-3.92359 0-4.51998-.45859-9.35382-1.16481-13.73257-.98875-6.92122-1.53264-13.84294-1.53266-20.90539 0-4.66122.29331-9.43917.85829-14.1004l1.53265-15.26522 .85829-12.75167-.30653-13.9778 .55175-16.0622-.24522-33.65706-1.83919-40.82987c.14125-.98875.85046-1.63663 1.83919-1.77788 1.97749-.2825 3.82254-.89313 5.51755-2.0231 2.11874-1.27124 4.21441-2.79899 6.19192-4.35274 2.11873-1.69499 3.2492-4.36646 3.24922-7.0502 0-1.69499-.42132-3.43071-1.41004-4.84318-2.11874-3.38998-4.94763-6.17622-8.33763-8.15371-1.69499-.98875-3.26543-2.26588-4.53665-3.67837-4.94373-5.22622-8.0419-11.74772-8.88939-17.96269-1.41249-9.4637-2.50572-18.89455-3.49445-29.48824-.42375-3.67248-1.32766-7.38124-2.88139-10.91249-1.27124-3.10748-3.48952-5.64311-6.31453-7.47935-1.83624-1.27124-3.84657-2.36445-5.82408-3.49445-19.4924-11.44119-40.91324-19.0907-63.51313-22.62196-4.37873-.70625-8.9193-.45561-12.87428.67437-7.20372,2.11874-14.25341,4.09719-21.45714,6.49845-3.53123,1.12999-7.344,1.8632-11.15772,2.14571-4.66122.42375-9.19397.97305-13.85518,1.9618-1.12999.2825-2.28451.42912-3.55575.42914-1.55374,0-3.24677-.25064-4.65927-.67437-2.34827-.74156-4.37925-2.15488-4.65926-2.20702-1.68391-2.52823-3.26247-5.02798-5.08841-8.39894-2.40124-4.09623-4.05701-8.45828-4.90449-13.11951-.2825-1.97749-.72243-4.01187-1.28743-6.13061-.70624-3.24873-1.69006-6.49894-2.82008-9.74767-1.12999-3.38998-3.14034-6.34148-5.82408-8.46024-2.54248-2.25999-5.47537-4.06778-8.58285-5.76277-1.80093-.95343-3.8461-1.47135-5.88539-1.47135zm130.15288,89.75215 6.92759.12261 6.0693.73567 9.50245,1.83918c.42373.14127.96226.4159 1.10351.9809l2.57486,5.51755 1.77788,4.04621 1.28742,3.55575 1.9618,4.65927 3.24922,6.49844 2.0231,3.55576 2.26833,5.45624 2.08441,6.37584 1.16481,4.78187 .36784,1.83919c.14127.28248.18392.6984.18392.9809-2e-005,1.97749-1.70088,3.67836-3.67837,3.67836h-.12261c-.70627,0-1.56208-.25062-2.26833-.67437l-4.53665-4.53665-4.78187-5.0884-2.82009-3.06531-2.26832-3.43314-1.71657-3.24923c-1.27125-2.68373-2.56701-5.32872-3.55576-8.15371l-6.31453-7.23412-7.90849-8.76678-6.37583-6.19191c-.42377-.42375-.44239-1.00493.12261-1.28743l1.83918-2.26833c.42373-.42375 1.13294-.67437 1.83919-.67437zm-67.92718,59.71215c1.13,0 2.09522.43993 2.9427,1.28743l4.29143,3.24922 3.49444,3.9849c.98875,1.12999 1.53266,2.51108 1.53266,3.92359 0,.98875-.08534,1.99122-.36784,2.69747-.42375,1.69499-.74109,3.41203-1.16482,4.96579-.42374,2.96624-1.38353,5.77112-2.51355,8.03111-1.69499,3.24873-3.43606,6.35768-5.27232,9.74767-1.13,2.11873-2.38847,4.21442-3.80098,6.19191s-2.65235,4.09185-3.92359,6.06932c-1.69499,2.40123-3.25217,4.79021-5.08841,7.0502-2.40124,3.24873-4.96089,6.37634-7.78588,9.62506-.42374.565-.96765.73565-1.53265.73567-.2825,0-.47179-.04265-.61306-.18392-.565,0-.9809-.53851-.9809-1.10351-.14125-.2825-.12261-.57576-.12261-.85828 0-1.13.31191-2.26044.73567-3.24923l1.9618-5.76277 1.65526-4.84318c2.25999-6.92123 4.39835-14.26177 6.37584-23.72548 .70625-3.67248 1.5567-7.31161 1.83918-8.58285 .565-2.68374.85829-5.40867.85829-8.09241 .14125-1.55374.53849-2.94024 1.10351-4.35273l2.82008-4.65927c.70625-1.27124 2.14326-2.14573 3.55575-2.14571zm56.46293,90.36522c.85627.04618 1.69402.36342 2.32964.91959 1.83626,1.41251 3.05206,3.6254 3.61706,5.88538l.73567,7.66327 .85829,7.47934 2.0844,14.9587c.42373,3.67248.73568,7.19733.73568,10.72856 0,3.39001-.31193,6.68286-.73568,9.9316-.14126,1.27126-.12261,2.52973-.12261,3.80097 2e-005,3.67249.56794,7.33859 1.83919,10.72857 .98876,2.54247 2.10059,4.91283 3.37183,7.17282 3.24875,6.0737 5.66174,12.42748 7.35674,19.0662 1.12997,4.66121 1.82054,9.35924 1.96179,14.16171 .2825,7.76873 1.30901,15.54625 3.004,23.17371 .98875,4.51998 1.66606,8.18363 2.51355,12.13861 .14127.98877 1.40759,1.9618 2.82008,1.9618 .28252,2e-005 .57579.01864.85829-.12261l3.37183.12261c.70627,2e-005 1.45271.58118 1.59396,1.28743 .98877,3.38998 1.41004,6.78683 1.41004,10.17681 2e-005,3.24875-.43993,6.45627-1.28743,9.56376-.70626,3.10746-2.98045,5.5097-5.94669,6.49844-2.54247.84752-5.22475,1.55669-7.90849,1.83919-2.5425.42374-4.66466,2.25802-5.0884,4.65926-.2825,1.12998-.42915,2.13787-.42915,3.12661v.12261c2e-005,2.40122-1.55962,4.27819-3.67836,4.84319-2.11876.70622-4.37971,1.08487-6.49845,1.22612-3.24873.28252-6.4803.72243-9.87029,1.28743l-10.29942.30653-12.016-.55176-9.56375-1.59395-6.13062-1.41005-9.31852-1.83918-6.31453-1.22612-7.66327-1.47135 17.41094-11.83208 .79698-.55175 3.24922-.9809 6.49845-1.59396 12.62906-7.47935-.73567-2.51355c-.98873-4.3787-3.07904-8.65004-5.76278-12.32252-2.25999-3.24876-4.43562-6.62695-6.13061-10.29943-1.41247-2.82499-2.06577-5.65929-2.20702-8.76678-.56502-9.74622-2.3007-19.45414-4.84318-29.05909-2.96626-10.45247-6.4857-21.20554-10.29943-31.94049-1.97749-5.22624-2.94809-10.15621-3.37184-14.95869-.14127-1.12997-.32516-2.30315-.18392-3.43314-1e-005-.70623.31193-1.3968.73568-1.9618l3.80098-3.55575 4.53665-3.49445 4.23012-3.80098 5.21102-4.65926 3.24922-3.43315 14.28433-15.51044 1.83918-2.39094 .85829-1.28743c.84747-1.27122 1.83133-2.52973 2.82008-3.80098 .56498-.70622 1.13294-1.17021 1.83918-1.59396l5.76278-3.49445 4.23012-1.53265c.35312-.14125.72832-.25578 1.10351-.30653 .2814-.03808.57286-.0767.85828-.0613zm-119.17908,24.33852 12.016,32.79877 .30653,1.22612 .24522,1.28743 4.65927,15.57176 3.9849,15.93958 2.94269,10.17682 1.9618,7.60196 4.23012,19.25012 1.16481,6.0693c.70627,3.10749 2.09275,5.9364 4.35274,8.33763 .84749.84752 1.83133,1.53805 2.82008,1.9618 2.40122,1.2712 4.97953,1.83918 7.66326,1.83918 .42373,2e-005 .9863.01864 1.41004-.12261 1.83622-.14125 3.65189.5493 4.78188,1.9618 2.54249,2.96625 4.09427,6.48569 4.65926,10.29942v.55176c0,.70624-.14664,1.3968-.42914,1.96179l-5.21102,8.33763-.9809,1.59396-11.70946,6.62106c-.8475.42373-1.41004,1.4022-1.41004,2.39094 2e-005,.14123 0,.2879 0,.42914l.98089,3.80098-3.98489-.85828c-5.08498-1.27125-10.30826-1.77788-15.81698-1.77788-3.1075,0-6.33366.12801-9.44114.55176-6.07372.84751-12.28084,1.9407-18.63706,3.49444-6.49747,1.55373-13.12588,2.43361-20.0471,2.57486-4.66122.14125-9.35384-.44533-13.73257-1.71657-1.83624-.42373-3.9692-.98629-5.94669-1.41004-4.09621-.70623-7.7383-2.67393-10.42204-5.64016-1.97751-1.97751-4.3851-4.64897-6.92759-7.05021l-6.37584-9.0733-3.49444-5.64016-3.86229-5.51755-3.37184-4.90449-5.33363-8.21502-2.57485-4.10751-3.67837-7.47935-2.69747-5.94669-1.83918-3.67837-1.53265-2.94269c-5.36747-9.74618-12.14254-18.77684-20.47624-26.54555l3.55575-.73567 9.74767-2.08441c6.63872-1.41251 12.97384-3.38557 19.18881-6.0693 5.36747-2.25999 9.45242-3.94517 13.54865-5.64017 4.94373-1.97747 9.9056-5.2223 14.28433-9.31852l6.92759-5.82408 5.88538-5.9467 3.86229-3.24922 4.35273-3.24923 4.10751-2.94269 5.08841-3.12661 3.67837-1.9618 3.92359-1.96179 4.10751-2.0231 4.41404-2.20702 3.24922-1.71658 2.9427-1.83918 2.82008-1.53265 6.0693-2.57486z"></path><path d="m155.369,109.39426 .43199.64798" fill="none" stroke="#000" stroke-width=".216"></path>
</svg>
