<?xml version="1.0" encoding="utf8" standalone="no"?>
<svg viewBox="0 0 375.18466 282.97968" xmlns="http://www.w3.org/2000/svg" xmlns:xlink="http://www.w3.org/1999/xlink">
<defs>
<filter id="filter3232">
<feGaussianBlur stdDeviation="1.6871"/>
</filter>
<linearGradient gradientUnits="userSpaceOnUse" id="linearGradient3782-4" x1="720.74274" x2="741">
<stop offset="0" stop-color="#ffc6a1"/>
<stop offset=".5" stop-color="#ffba8d"/>
<stop offset="1" stop-color="#ff7f2c"/>
</linearGradient>
<linearGradient gradientUnits="userSpaceOnUse" id="linearGradient1866" x1="177.64503" x2="380.58253">
<stop offset="0" stop-color="#563b09"/>
<stop offset="1" stop-color="#291d04"/>
</linearGradient>
<linearGradient gradientUnits="userSpaceOnUse" id="linearGradient1857" x1="9.0007" x2="380.15698">
<stop offset="0" stop-color="#593d09"/>
<stop offset="1" stop-color="#7f5200"/>
</linearGradient>
<linearGradient id="linearGradient3073">
<stop offset="0" stop-color="#f1aac2"/>
<stop offset="1" stop-color="#e5638f"/>
</linearGradient>
<linearGradient gradientUnits="userSpaceOnUse" id="linearGradient3465" x1="431.75891" x2="473.73291" y1="-381.61734" y2="-348.9079">
<stop offset="0" stop-color="#ffceae"/>
<stop offset="1" stop-color="#ffb280"/>
</linearGradient>
<linearGradient id="linearGradient3321">
<stop offset="0" stop-color="#8a8a8a"/>
<stop offset=".2857" stop-color="#f1f1f1"/>
<stop offset="1" stop-color="#fff"/>
</linearGradient>
<linearGradient gradientUnits="userSpaceOnUse" id="linearGradient1843" x2="0" y1="247.15378" y2="136.84604">
<stop offset="0"/>
<stop offset="1" stop-color="#4b3000"/>
</linearGradient>
<linearGradient gradientUnits="userSpaceOnUse" id="linearGradient3079" x1="377.00487" x2="394.97884" xlink:href="#linearGradient3073"/>
<linearGradient gradientUnits="userSpaceOnUse" id="linearGradient3096" x1="515.57371" x2="497.59974" xlink:href="#linearGradient3073"/>
<linearGradient gradientUnits="userSpaceOnUse" id="linearGradient3335" x1="430.79134" x2="446.38509" xlink:href="#linearGradient3321"/>
<linearGradient gradientUnits="userSpaceOnUse" id="linearGradient3327" x1="444.26009" x2="459.85384" xlink:href="#linearGradient3321"/>
<radialGradient cx="91.66699" cy="-489.73367" gradientTransform="matrix(-.31333,.85438,-1.00037,-.36687,-369.52824,-742.8831)" gradientUnits="userSpaceOnUse" id="radialGradient3915" r="28.14063">
<stop offset="0" stop-color="#7e7e8d"/>
<stop offset="1" stop-color="#18181b"/>
</radialGradient>
</defs>
<g transform="translate(-9.00329,-6.8421)">
<path d="m137.64257,157.42981c2.51397,0 4.86016.73017 6.85037,1.96275h.17324c6.97199,0 12.67825,5.4685 13.02726,12.35376 .0121.2221 0,.44859 0,.6735 0,1.88651-.41523,3.67359-1.13532,5.29172 1.3887,2.07183 2.19367,4.55171 2.19367,7.23521 0,.2249.0121.4514 0,.67349-.34902,6.88527-6.05527,12.35377-13.02726,12.35377-.68886,0-1.36026-.0516-2.02048-.15401-2.04463,1.33435-4.49514,2.11669-7.11976,2.11669-2.54207,0-4.92198-.72342-6.92735-1.98198-.25506.0156-.51071.0192-.76971.0192-7.19689,0-13.0465-5.83037-13.0465-13.02726 0-1.89567.4239-3.68962 1.15456-5.31097-1.39239-2.06678-2.21289-4.53471-2.21289-7.21598 0-7.19689 5.84961-13.02726 13.04648-13.02726 .87854,0 1.7312.0856 2.55928.25016 2.07636-1.39694 4.56399-2.21291 7.25446-2.21291z" fill="#734b02" stroke="#000" stroke-width="1.84729"/>
<path d="m250.06579,126.62979c-3.35695,0-6.42534,1.04239-8.8125,2.8125-1.93558-.92165-4.14847-1.4375-6.5-1.4375-7.5925,0-13.75,5.46333-13.75,12.1875 0,1.31764.25032,2.59283.6875,3.78125-.55225.55354-1.03571,1.1472-1.46875,1.78125-3.13282-2.60982-7.53536-4.25-12.4375-4.25-7.30369,0-13.53732,3.62519-16.03125,8.71875-1.75097-.83868-3.67276-1.34375-5.6875-1.34375-3.28312,0-6.33209,1.23163-8.8125,3.3125-2.2991-1.65049-4.98128-2.625-7.875-2.625-4.34672,0-8.27358,2.15078-11.03125,5.59375-1.62409-.40316-3.33332-.59375-5.125-.59375-4.36664,0-8.3394,1.28722-11.375,3.40625-3.38373-4.55586-9.23392-7.5625-15.90625-7.5625-10.48109,0-19,7.4228-19,16.59375 0,2.18612.49761,4.27589 1.375,6.1875-.96721-.19539-1.90301-.46597-2.8125-.8125-3.04911,6.31733-9.21279,10.625-16.34375,10.625-.28557,0-.56136.0137-.84375,0-1.55175,9.40903-10.39637,16.625-21.09375,16.625-1.74715,0-3.43721-.23084-5.0625-.59375-1.43397,2.76167-4.49892,5.08266-8.5,6.5625-2.58151,2.80563-5.94624,4.77819-9.71875,5.53125 1.59322.6685 3.30668,1.0625 5.09375,1.0625 2.72124,0 5.23075-.8396 7.4375-2.3125 1.06869,4.33739 4.48587,7.5 8.53125,7.5 4.90126,0 8.875-4.66254 8.875-10.40625 0-1.20245-.17967-2.36311-.5-3.4375 3.47061-.76632 6.52061-2.93724 8.71875-5.96875 .83515.41221 1.72144.76765 2.625,1 .1748.28971.36428.56145.5625.84375-.26522-.028-.54106-.0312-.8125-.0312-4.90126,0-8.84375,4.63129-8.84375,10.375s3.94249,10.40625 8.84375,10.40625c2.81683,0 5.34303-1.53908 6.96875-3.9375 3.65206,6.57077 13.34739,11.37787 25,11.90625 1.53061,3.12575 4.42294,5.25 7.71875,5.25 2.95503,0 5.54328-1.70954 7.15625-4.3125 .83929.89391 1.80459,1.77631 2.875,2.5625 .68778,4.94146 4.33886,8.6875 8.75,8.6875 2.40169,0 4.55851-1.12134 6.15625-2.9375l.25.0312c1.33642,3.76082 4.4942,6.40625 8.1875,6.40625 1.06059,0 2.08841-.22509 3.03125-.625 5.25386,3.60139 12.88,5.875 21.34375,5.875 11.22075,0 20.90402-3.98181 25.625-9.78125 .64363-.0274 1.30624-.0719 1.9375-.125 1.77496.76135 3.72062,1.21875 5.8125,1.21875 5.73475,0 10.65705-3.20437 12.71875-7.75 .34415-.26651.64945-.53378.96875-.8125 .75206.11608 1.52417.21875 2.3125.21875 1.19074,0 2.33567-.14702 3.4375-.40625 1.53061,3.12575 4.42294,5.21875 7.71875,5.21875 3.58088,0 6.65992-2.48345 8.0625-6.0625 .7679.11784 1.53781.1875 2.34375.1875 2.62277,0 5.07103-.65252 7.15625-1.78125 1.58691,1.74272 3.7161,2.78125 6.0625,2.78125 3.76641,0 6.99278-2.74525 8.28125-6.625 .37036.0387.71567.0625 1.09375.0625 .93173,0 1.87028-.11577 2.75-.34375 1.47829,1.29044 3.2962,2.03125 5.28125,2.03125 3.65842,0 6.79834-2.57696 8.15625-6.28125 2.08288,1.15727 4.53802,1.8125 7.15625,1.8125 5.34291,0 9.97478-2.75701 12.25-6.8125 1.58981.58514 3.33627.90625 5.15625.90625 7.5925,0 13.71875-5.61497 13.71875-12.53125 0-.81927-.0851-1.59962-.25-2.375 1.05817-1.77443 1.65625-3.8074 1.65625-5.96875 0-4.03695-2.11921-7.61612-5.375-9.90625 .31612-1.05394.5-2.16722.5-3.3125 0-6.91629-6.1575-12.53125-13.75-12.53125-.67161,0-1.3229.0715-1.96875.15625 .26514-.94408.40625-1.92075.40625-2.9375 0-6.72417-6.1575-12.1875-13.75-12.1875-.2195,0-.40801.0222-.625.0312-1.53318-3.11425-4.43028-5.1875-7.71875-5.1875-1.28483,0-2.49132.33061-3.59375.90625-3.40319-5.83141-11.62898-10.23617-21.6875-11.40625 .0139-.22476.0625-.45966.0625-.6875 0-6.72417-6.15751-12.15625-13.75-12.15625zm34.625,45.375c.51264,1.09318 1.20008,2.09503 2.03125,3-.76302-.10104-1.5283-.18727-2.3125-.25 .20298-.83233.28125-1.67639.28125-2.5625 0-.0699.002-.11786 0-.1875zm-30.34375,2.4375c1.01851.0892 2.07502.13489 3.125.15625 .13297.58172.33951,1.13907.5625,1.6875-1.18577-.5743-2.45616-1.0763-3.78125-1.53125 .0327-.10353.0641-.20787.0937-.3125z" fill="url(#linearGradient1843)"/>
<path d="m140.93361,161.58957c2.51396,0 4.86015.73018 6.85038,1.96276h.17324c6.97199,0 12.67824,5.46849 13.02725,12.35376 .0121.22209 0,.44859 0,.67349 0,1.88651-.41522,3.6736-1.13531,5.29171 1.3887,2.07184 2.19366,4.55172 2.19366,7.23523 0,.2249.0121.45139 0,.67349-.34901,6.88526-6.05526,12.35376-13.02725,12.35376-.68886,0-1.36026-.0518-2.02048-.15401-2.04463,1.33436-4.49514,2.1167-7.11977,2.1167-2.54207,0-4.92197-.72342-6.92734-1.982-.25506.0156-.51072.0192-.76971.0192-7.19689,0-13.04649-5.83035-13.04649-13.02726 0-1.89566.42389-3.68961 1.15455-5.31095-1.39239-2.06679-2.2129-4.53471-2.2129-7.21599 0-7.19689 5.84962-13.02725 13.04649-13.02725 .87854,0 1.7312.0856 2.55928.25014 2.07636-1.39693 4.56398-2.2129 7.25447-2.2129z" fill="#3b2906"/>
<g transform="matrix(1.34331,0,0,1.34331,-415.41452,624.09475)">
<path d="m445.54848-457.32249c-.182,0-.42764.0281-.625.0312v.0312c-10.88795.12684-37.35712,2.43106-47.09375,26.15625-4.85283-6.45025-.004.002-15.65625-14.84375 0,0-19.63809,19.24164 7.15625,32.90625 9.30685,86.34856-9.65395,119.52985 45.4375,118.34375 3.13866-.0676 6.58435-.022 10.15625.0625h.0937l1.625.0312v-.0625c3.57508-.0847 7.01503-.13017 10.15625-.0625 55.09145,1.1861 36.13065-31.99519 45.4375-118.34375 26.79434-13.66461 7.15625-32.90625 7.15625-32.90625-15.65202,14.84589-10.80342,8.3935-15.65625,14.84375-10.06532-24.52611-38.06087-26.1875-48.1875-26.1875z" fill="#333" stroke="#000" stroke-linecap="round" stroke-linejoin="round" stroke-width="4.32516"/>
<path d="m491.48003-290.82086c0,31.7294-19.71376,57.45116-44.03191,57.45116s-44.03191-25.72176-44.03191-57.45116 19.71376-57.45117 44.03191-57.45117 44.03191,25.72177 44.03191,57.45117z" fill="#93939f" stroke="#000" stroke-linecap="round" stroke-linejoin="round" stroke-width="1.84467" transform="matrix(1.17809,0,0,.9978,-80.10197,-23.28434)"/>
<path d="m446.2574-370.12463c27.8623.99064 50.1875,26.25006 50.1875,57.28125 0,29.28717-19.87373,53.41889-45.53125,56.875 17.90207-4.99809 31.4375-28.37647 31.4375-56.46875 0-30.48699-15.93355-55.42868-36.09375-57.34375v-.34375z" fill="#7f7f8d"/>
<path d="m446.12271-370.97296c-27.8623.99064-50.1875,26.25006-50.1875,57.28125 0,29.28717 19.87373,53.41889 45.53125,56.875-17.90207-4.99809-31.4375-28.37647-31.4375-56.46875 0-30.48699 15.93355-55.42868 36.09375-57.34375v-.34375z" fill="#c1c1c8"/>
<path d="m426.74727-436.07776c-12.86013,0-23.30393,12.0744-23.30393,26.95437s10.4438,26.95293 23.30393,26.95293c7.55749,0 14.26292-4.17377 18.52032-10.63267 4.25595,6.46322 10.97724,10.63267 18.53906,10.63267 12.8558,0 23.30105-12.07583 23.30105-26.95293s-10.44525-26.95437-23.30105-26.95437c-7.56037,0-14.28311,4.17234-18.53906,10.63412-4.2574-6.45746-10.96427-10.63412-18.52032-10.63412z" fill="#fff" stroke="#000" stroke-linecap="round" stroke-width="4.0828"/>
<path d="m470.39862-440.96219c.22052,1.32581.32521,2.70287.32521,4.10275 0,11.90963-8.34593,21.5644-18.63745,21.5644-6.0535,0-11.45289-3.33165-14.85993-8.50568-3.40819,5.17057-8.75986,8.50568-14.80989,8.50568-3.0013,0-5.84231-.81726-8.35558-2.27652 1.65778,9.95155 9.22886,17.48669 18.31223,17.48669 6.05004,0 11.42672-3.36013 14.83491-8.5307 3.40704,5.17403 8.78141,8.5307 14.83491,8.5307 10.29152,0 18.66247-9.67979 18.66247-21.58943 0-8.43925-4.20008-15.74184-10.30688-19.28789z" fill="#a5a5a5" filter="url(#filter3232)" opacity=".3374" transform="matrix(1.29016,0,0,1.29016,-131.4911,135.43927)"/>
<g transform="matrix(1.44172,0,0,1.44172,76.81481,-486.60278)">
<path d="m254.543,55.006c0,2.584-2.096,4.679-4.68,4.679s-4.679-2.095-4.679-4.679c0-2.585 2.096-4.68 4.679-4.68 2.585.001 4.68,2.095 4.68,4.68z" stroke="#000" stroke-linecap="round" stroke-width="1.795"/>
<path d="m249.389,53.367c0,.67-.544,1.213-1.214,1.213s-1.213-.543-1.213-1.213 .543-1.214 1.213-1.214 1.214.544 1.214,1.214z" fill="#fff"/>
</g>
<g transform="matrix(1.44172,0,0,1.44172,76.81481,-486.60278)">
<path d="m266.394,55.006c0,2.584-2.095,4.679-4.679,4.679-2.585,0-4.68-2.095-4.68-4.679 0-2.585 2.095-4.68 4.68-4.68s4.679,2.095 4.679,4.68z" stroke="#000" stroke-linecap="round" stroke-width="1.795"/>
<path d="m261.239,53.367c0,.67-.543,1.213-1.213,1.213s-1.213-.543-1.213-1.213 .543-1.214 1.213-1.214 1.213.544 1.213,1.214z" fill="#fff"/>
</g>
<path d="m380.40682-438.94728c0,0-10.15784,11.77341 7.49962,22.93648 2.83478-2.74646 3.24009-3.23227 6.57467-5.87639v-2.125c-4.03962-2.20326-2.17495-5.0849-8.76287-13.27466l-5.31142-1.66043z" fill="url(#linearGradient3079)" stroke="#000"/>
<path d="m512.17176-438.42365c0,0 10.15784,11.77341-7.49962,22.93648-2.83478-2.74646-3.24009-3.23227-6.57467-5.87639v-2.125c4.03962-2.20326 2.17495-5.0849 8.76287-13.27466l5.31142-1.66043z" fill="url(#linearGradient3096)" stroke="#000"/>
<path d="m439.54777-368.44722c27.8623.99064 50.1875,26.25006 50.1875,57.28125 0,29.28717-19.87373,53.41889-45.53125,56.875 17.90207-4.99809 31.4375-28.37647 31.4375-56.46875 0-30.48699-15.93355-55.42868-36.09375-57.34375v-.34375z" fill="#7f7f8d"/>
<path d="m445.76009-390.20575c-8.5947,0-16.00715,4.23661-19.40625,10.34005-7.84003,2.42142-12.875,6.21971-12.875,10.48114 0,1.17376.40651,2.32265 1.125,3.40637-.53974,1.25712-.8125,2.56678-.8125,3.91028 0,9.70979 14.88779,17.57607 33.25,17.57607s33.25-7.86628 33.25-17.57607c0-1.54534-.38566-3.04677-1.09375-4.47465 .49841-.9126.78125-1.86985.78125-2.842 0-4.66574-6.04537-8.76769-15.1875-11.12613-3.549-5.75749-10.74012-9.69506-19.03125-9.69506z" fill="url(#linearGradient3465)" stroke="#000" stroke-width="2"/>
<path d="m453.73839-409.49734c0,6.48484-5.257,11.74184-11.74184,11.74184s-11.74184-5.257-11.74184-11.74184 5.257-11.74185 11.74184-11.74185 11.74184,5.257 11.74184,11.74185z" transform="translate(4.19352,25.16109)"/>
<path d="m431.93735-359.02802h13.30897v20.28033h-13.30897z" fill="url(#linearGradient3335)" stroke="#000" stroke-width="2.26693"/>
<path d="m445.40909-359.4046h13.30897v20.28033h-13.30897z" fill="url(#linearGradient3327)" stroke="#000" stroke-width="2.26693"/>
<path d="m419.35156-365.88479c19.33498,10.79209 37.41651,9.04966 54.5157-2.51611" fill="none" stroke="#000" stroke-width="4"/>
</g>
<path d="m282.22204,142.12979c-4.04683,0-7.74726,1.27237-10.625,3.40625-2.33336-1.11106-5.00896-1.75-7.84375-1.75-9.15283,0-16.5625,6.58145-16.5625,14.6875 0,1.58843.28547,3.12984.8125,4.5625-2.58211,2.58811-4.15625,5.96229-4.15625,9.6875 0,1.25987.19413,2.48944.53125,3.65625-1.48403.42672-2.8576,1.02293-4.125,1.78125-2.4716,1.13069-4.60458,2.75404-6.15625,4.78125-.003.001.003.03 0,.0312-1.54518.57907-3.00061,1.22081-4.375,1.9375-2.61841-6.06157-7.61591-10.45923-13.5625-11.5-3.07952-2.77888-6.90652-4.4375-11.09375-4.4375-3.95784,0-7.63485,1.46024-10.625,3.96875-2.77159-1.98968-6.01159-3.15625-9.5-3.15625-9.50318,0-17.29495,8.53327-18.15625,19.40625-1.68777-.60376-3.48739-.9375-5.34375-.9375-5.60453,0-10.62099,2.96561-13.96875,7.625-.9241-.0458-1.86934-.0937-2.8125-.0937-2.94047,0-5.7741.22965-8.5.65625-3.15352-6.40165-9.0516-10.71875-15.8125-10.71875-7.67088,0-14.2379,5.54914-16.9375,13.40625-2.86982-7.4025-9.20355-12.5625-16.59375-12.5625-5.57477,0-10.55869,2.94582-13.90625,7.5625-2.17664-1.07433-4.55243-1.6875-7.0625-1.6875-7.53781,0-14.02874,5.35895-16.8125,13-2.7026-1.85391-5.82982-2.9375-9.1875-2.9375-6.77313,0-12.6945,4.32919-15.84375,10.75-1.3128-.67385-2.78754-1.0625-4.3125-1.0625-5.90852,0-10.6875,5.60716-10.6875,12.53125s4.77898,12.53125 10.6875,12.53125c1.79334,0 3.51543-.49235 5-1.40625 .0635.11019.15353.20378.21875.3125 1.40015,4.0233 4.5337,6.99262 8.3125,7.65625 2.05131.93549 4.29136,1.46875 6.625,1.46875 3.28048,0 6.33974-1.0369 9-2.8125 1.28832,5.22877 5.40451,9.0625 10.28125,9.0625 .78267,0 1.5467-.0945 2.28125-.28125 2.31475,1.11904 4.88585,1.75 7.59375,1.75 2.29226,0 4.47629-.46536 6.5-1.28125 1.88657,1.96495 4.36837,3.15625 7.09375,3.15625 3.39571,0 6.41518-1.85868 8.375-4.75 4.40259,7.92113 16.10892,13.73804 30.15625,14.375 1.84517,3.76812 5.30812,6.3125 9.28125,6.3125 3.56231,0 6.7118-2.04961 8.65625-5.1875 1.01178,1.07761 2.14711,2.11474 3.4375,3.0625 .82912,5.95698 5.24483,10.5 10.5625,10.5 2.89527,0 5.51142-1.34186 7.4375-3.53125l.28125.0312c1.61107,4.5337 5.4227,7.71875 9.875,7.71875 1.27856,0 2.51965-.26791 3.65625-.75 6.33358,4.34151 15.51562,7.0625 25.71875,7.0625 13.52672,0 25.21507-4.78997 30.90625-11.78125 .77591-.033 1.5515-.0922 2.3125-.15625 2.13973.91781 4.50947,1.46875 7.03125,1.46875 6.91329,0 12.8271-3.86395 15.3125-9.34375 .41488-.32129.80258-.63275 1.1875-.96875 .90662.13994 1.8309.25 2.78125.25 1.43544,0 2.82799-.1875 4.15625-.5 1.84517,3.76812 5.30812,6.3125 9.28125,6.3125 4.31678,0 8.02793-2.99792 9.71875-7.3125 .92571.14206 1.87218.21875 2.84375.21875 3.16177,0 6.11125-.79556 8.625-2.15625 1.91303,2.10086 4.48389,3.375 7.3125,3.375 4.54044,0 8.41549-3.32292 9.96875-8 .44648.0466.88797.0937 1.34375.0937 1.12321,0 2.22074-.16266 3.28125-.4375 1.7821,1.55564 3.982,2.46875 6.375,2.46875 4.41026,0 8.20677-3.1282 9.84375-7.59375 2.51093,1.3951 5.4687,2.1875 8.625,2.1875 6.44092,0 12.0072-3.32982 14.75-8.21875 1.91652.70539 4.02475,1.09375 6.21875,1.09375 9.15283,0 16.5625-6.7561 16.5625-15.09375 0-.98763-.11373-1.94028-.3125-2.875 1.27564-2.13909 2-4.58198 2-7.1875 0-4.86659-2.54387-9.17673-6.46875-11.9375 .38109-1.27054.59375-2.61936.59375-4 0-8.33765-7.44092-15.09375-16.59375-15.09375-.80964,0-1.59642.0853-2.375.1875 .31963-1.1381.5-2.30555.5-3.53125 0-8.10605-7.40967-14.6875-16.5625-14.6875-.26461,0-.51967.0204-.78125.0312-1.84827-3.75426-5.31696-6.28125-9.28125-6.28125-1.54887,0-3.01476.3998-4.34375,1.09375-4.10258-7.02982-13.99936-12.33945-26.125-13.75 .0168-.27095.0625-.53783.0625-.8125 0-8.10605-7.40967-14.65625-16.5625-14.65625zm41.71875,54.6875c.61799,1.31784 1.46677,2.53406 2.46875,3.625-.91983-.1218-1.86714-.20563-2.8125-.28125 .24469-1.00338.34375-2.02554.34375-3.09375 0-.0843.002-.16605 0-.25zm-36.5625,2.96875c1.22782.10758 2.48424.16176 3.75.1875 .16029.70128.41869,1.37012.6875,2.03125-1.42946-.69232-2.96509-1.29531-4.5625-1.84375 .0394-.12481.0892-.24887.125-.375z" fill="url(#linearGradient1857)"/>
<path d="m282.64503,142.22809c-4.04683,0-7.74726,1.27237-10.625,3.40625-2.33336-1.11106-5.00896-1.75-7.84375-1.75-1.39619,0-2.7363.18041-4.03125.46875 2.92477,2.22754 5.68412,4.55634 8.21875,6.9375 11.29942,1.24587 20.0625,10.25875 20.0625,21.21875 0,2.38913-.41888,4.69834-1.1875,6.84375 1.64489,5.01036 2.53125,10.16503 2.53125,15.4375 0,.02 3e-005,.0415 0,.0625 4.4507,3.9039 7.21875,9.4502 7.21875,15.625 0,11.7049-10.00203,21.2352-22.40625,21.4063-.37775.4358-.76566.8806-1.15625,1.3124 .96783,2.1442 1.5,4.4562 1.5,6.8438 0,11.8117-12.8199,21.375-28.65625,21.375-1.40899,0-2.80167-.0723-4.15625-.2188-2.43042,10.3421-16.8423,18.2813-34.25,18.2813-6.07645,0-11.7868-.9562-16.75-2.6563-3.30934,3.8056-8.04331,6.5863-13.46875,7.7188 6.09457,3.3056 14.06631,5.2812 22.8125,5.2812 13.52672,0 25.21507-4.79 30.90625-11.7812 .77591-.033 1.5515-.0919 2.3125-.1562 2.13973.9177 4.50947,1.4687 7.03125,1.4687 6.91329,0 12.8271-3.8639 15.3125-9.3437 .41488-.3214.80258-.6328 1.1875-.9688 .90662.1399 1.8309.25 2.78125.25 1.43544,0 2.82799-.1875 4.15625-.5 1.84517,3.7681 5.30812,6.3125 9.28125,6.3125 4.31678,0 8.02793-2.998 9.71875-7.3125 .92571.142 1.87218.2188 2.84375.2188 3.16177,0 6.11125-.7956 8.625-2.1563 1.91303,2.1008 4.48389,3.375 7.3125,3.375 4.54044,0 8.41549-3.323 9.96875-8 .44648.047.88797.0937 1.34375.0937 1.12321,0 2.22074-.1626 3.28125-.4374 1.7821,1.5555 3.982,2.4687 6.375,2.4687 4.41026,0 8.20677-3.1283 9.84375-7.5937 2.51093,1.395 5.4687,2.1874 8.625,2.1874 6.44092,0 12.0072-3.3298 14.75-8.2187 1.91652.7054 4.02475,1.0937 6.21875,1.0937 9.15283,0 16.5625-6.756 16.5625-15.0937 0-.9876-.11373-1.9403-.3125-2.875 1.27564-2.1391 2-4.582 2-7.1875 0-4.8666-2.54387-9.1767-6.46875-11.9375 .38109-1.2705.59375-2.6193.59375-4 0-8.3376-7.44092-15.0938-16.59375-15.0937-.80964,0-1.59642.085-2.375.1874 .31963-1.1381.5-2.3055.5-3.5312 0-8.10604-7.40967-14.6875-16.5625-14.6875-.26461,0-.51967.0205-.78125.0312-1.84827-3.75426-5.31696-6.28125-9.28125-6.28125-1.54887,0-3.01476.3998-4.34375,1.09375-4.10258-7.02982-13.99936-12.33945-26.125-13.75 .0168-.27095.0625-.53783.0625-.8125 0-8.10605-7.40967-14.65625-16.5625-14.65625zm41.71875,54.6875c.61799,1.3179 1.46677,2.5341 2.46875,3.625-.91983-.1218-1.86714-.2057-2.8125-.2812 .24469-1.0035.34375-2.0256.34375-3.0938 0-.084.002-.166 0-.25z" fill="url(#linearGradient1866)"/>
<path d="m170.4201,256.54007c1.45114,0 2.80543.42148 3.95424,1.13296h.1c4.02444,0 7.31826,3.15658 7.51972,7.13096 .007.1282 0,.25894 0,.38876 0,1.08895-.23968,2.12051-.65534,3.05454 .8016,1.19592 1.26625,2.62738 1.26625,4.17638 0,.12982.007.26056 0,.38876-.20146,3.97438-3.49528,7.13096-7.51972,7.13096-.39763,0-.78518-.0298-1.16628-.0889-1.18022.77023-2.59473,1.22182-4.10974,1.22182-1.46736,0-2.84111-.41758-3.99867-1.14406-.14723.009-.2948.0111-.4443.0111-4.15426,0-7.53083-3.36546-7.53083-7.51972 0-1.09424.24469-2.12976.66645-3.06565-.80373-1.19301-1.27735-2.61757-1.27735-4.16528 0-4.15426 3.37657-7.51972 7.53082-7.51972 .50712,0 .9993.0494 1.47729.1444 1.19854-.80636 2.63447-1.27736 4.18749-1.27736z" fill="#734b02" stroke="#000" stroke-width="1.06631"/>
<path d="m172.31979,258.94121c1.45113,0 2.80542.42148 3.95424,1.13296h.1c4.02444,0 7.31826,3.15658 7.51972,7.13096 .007.1282 0,.25894 0,.38876 0,1.08895-.23968,2.12051-.65534,3.05453 .8016,1.19593 1.26625,2.62739 1.26625,4.17639 0,.12982.007.26056 0,.38876-.20146,3.97438-3.49528,7.13096-7.51972,7.13096-.39763,0-.78518-.0299-1.16628-.0889-1.18022.77023-2.59473,1.22182-4.10974,1.22182-1.46736,0-2.84111-.41758-3.99867-1.14407-.14723.009-.2948.0111-.4443.0111-4.15426,0-7.53082-3.36545-7.53082-7.51972 0-1.09423.24468-2.12975.66644-3.06564-.80373-1.19301-1.27735-2.61757-1.27735-4.16528 0-4.15426 3.37657-7.51972 7.53082-7.51972 .50712,0 .9993.0494 1.47729.14439 1.19854-.80635 2.63447-1.27735 4.1875-1.27735z" fill="#3b2906"/>
<path d="m253.52054,255.99717c1.45114,0 2.80543.42148 3.95424,1.13296h.1c4.02444,0 7.31826,3.15658 7.51972,7.13096 .007.1282 0,.25894 0,.38876 0,1.08895-.23968,2.12051-.65534,3.05454 .8016,1.19592 1.26625,2.62738 1.26625,4.17638 0,.12982.007.26056 0,.38876-.20146,3.97438-3.49528,7.13096-7.51972,7.13096-.39763,0-.78518-.0298-1.16628-.0889-1.18022.77023-2.59473,1.22182-4.10974,1.22182-1.46736,0-2.84111-.41758-3.99867-1.14406-.14723.009-.2948.0111-.4443.0111-4.15426,0-7.53083-3.36546-7.53083-7.51972 0-1.09424.24469-2.12976.66645-3.06565-.80373-1.19301-1.27735-2.61757-1.27735-4.16528 0-4.15426 3.37657-7.51972 7.53082-7.51972 .50712,0 .9993.0494 1.47729.1444 1.19854-.80636 2.63447-1.27736 4.18749-1.27736z" fill="#734b02" stroke="#000" stroke-width="1.06631"/>
<path d="m255.42023,258.39831c1.45113,0 2.80542.42148 3.95424,1.13296h.1c4.02444,0 7.31826,3.15658 7.51972,7.13096 .007.1282 0,.25894 0,.38876 0,1.08895-.23968,2.12051-.65534,3.05453 .8016,1.19593 1.26625,2.62739 1.26625,4.17639 0,.12982.007.26056 0,.38876-.20146,3.97438-3.49528,7.13096-7.51972,7.13096-.39763,0-.78518-.0299-1.16628-.0889-1.18022.77023-2.59473,1.22182-4.10974,1.22182-1.46736,0-2.84111-.41758-3.99867-1.14407-.14723.009-.2948.0111-.4443.0111-4.15426,0-7.53082-3.36545-7.53082-7.51972 0-1.09423.24468-2.12975.66644-3.06564-.80373-1.19301-1.27735-2.61757-1.27735-4.16528 0-4.15426 3.37657-7.51972 7.53082-7.51972 .50712,0 .9993.0494 1.47729.14439 1.19854-.80635 2.63447-1.27735 4.1875-1.27735z" fill="#3b2906"/>
<path d="m362.45451,209.41239c2.23872,0 4.32802.65023 6.10032,1.74785h.15427c6.20861,0 11.29008,4.86974 11.60088,11.00113 .0108.19778 0,.39947 0,.59975 0,1.67995-.36976,3.27137-1.01101,4.71232 1.23665,1.84498 1.95348,4.05333 1.95348,6.44302 0,.20027.0108.40197 0,.59975-.3108,6.13138-5.39227,11.00112-11.60088,11.00112-.61344,0-1.21132-.046-1.79925-.13714-1.82076,1.18825-4.00296,1.88493-6.34021,1.88493-2.26374,0-4.38306-.64421-6.16886-1.76497-.22714.0139-.4548.0171-.68543.0171-6.40889,0-11.61802-5.19198-11.61802-11.60087 0-1.68812.37749-3.28564 1.02815-4.72947-1.23994-1.84049-1.9706-4.03819-1.9706-6.42589 0-6.40889 5.20912-11.60088 11.618-11.60088 .78235,0 1.54165.0762 2.27905.22277 1.84903-1.24399 4.06427-1.97061 6.46016-1.97061z" fill="#734b02" stroke="#000" stroke-width="1.64503"/>
<path d="m365.38522,213.1167c2.2387,0 4.328.65023 6.10031,1.74785h.15427c6.20862,0 11.29008,4.86974 11.60088,11.00112 .0108.19778 0,.39948 0,.59975 0,1.67996-.36976,3.27137-1.01101,4.71231 1.23665,1.84499 1.95348,4.05335 1.95348,6.44303 0,.20028.0108.40197 0,.59975-.3108,6.13139-5.39226,11.00113-11.60088,11.00113-.61343,0-1.21132-.0461-1.79925-.13715-1.82076,1.18826-4.00296,1.88494-6.34021,1.88494-2.26373,0-4.38306-.64422-6.16886-1.76499-.22713.0139-.45479.0171-.68543.0171-6.40889,0-11.618-5.19197-11.618-11.60088 0-1.68809.37747-3.28562 1.02813-4.72944-1.23993-1.84049-1.9706-4.0382-1.9706-6.42589 0-6.40889 5.20913-11.60088 11.618-11.60088 .78235,0 1.54165.0762 2.27906.22275 1.84902-1.24397 4.06427-1.9706 6.46017-1.9706z" fill="#3b2906"/>
<path d="m312.21273,188.93836c1.53876,0 2.97482.44693 4.193,1.20137h.10604c4.26743,0 7.76014,3.34717 7.97376,7.56153 .007.13595 0,.27458 0,.41224 0,1.1547-.25415,2.24855-.6949,3.23897 .85,1.26813 1.3427,2.78603 1.3427,4.42856 0,.13765.007.27629 0,.41223-.21362,4.21436-3.70633,7.56153-7.97377,7.56153-.42164,0-.83259-.0316-1.23669-.0943-1.25149.81673-2.75141,1.29559-4.3579,1.29559-1.55596,0-3.01266-.44279-4.24011-1.21314-.15612.01-.3126.0118-.47113.0118-4.40509,0-7.98554-3.56867-7.98554-7.97377 0-1.16031.25946-2.25835.70669-3.25076-.85227-1.26504-1.35448-2.77561-1.35448-4.41678 0-4.4051 3.58045-7.97377 7.98554-7.97377 .53774,0 1.05964.0524 1.56648.15312 1.27092-.85505 2.79354-1.35448 4.44034-1.35448z" fill="#734b02" stroke="#000" stroke-width="1.1307"/>
<path d="m315.90452,193.1619c1.53876,0 2.97482.44693 4.193,1.20137h.10604c4.26744,0 7.76014,3.34717 7.97377,7.56152 .007.13595 0,.27458 0,.41224 0,1.1547-.25415,2.24855-.69491,3.23897 .85,1.26813 1.34271,2.78603 1.34271,4.42856 0,.13766.007.27629 0,.41223-.21363,4.21436-3.70633,7.56154-7.97377,7.56154-.42164,0-.83259-.0317-1.2367-.0943-1.25149.81674-2.7514,1.2956-4.35789,1.2956-1.55596,0-3.01266-.4428-4.24012-1.21315-.15611.01-.31259.0118-.47112.0118-4.4051,0-7.98554-3.56866-7.98554-7.97377 0-1.16029.25945-2.25834.70668-3.25074-.85226-1.26505-1.35448-2.77562-1.35448-4.41678 0-4.4051 3.58045-7.97377 7.98554-7.97377 .53774,0 1.05964.0524 1.56649.1531 1.27091-.85503 2.79354-1.35447 4.44035-1.35447z" fill="#3b2906" opacity=".8025"/>
<path d="m40.48996,222.44905c1.45114,0 2.80543.42148 3.95424,1.13296h.1c4.02444,0 7.31826,3.15658 7.51972,7.13096 .007.1282 0,.25894 0,.38876 0,1.08895-.23968,2.12051-.65534,3.05454 .8016,1.19592 1.26625,2.62738 1.26625,4.17638 0,.12982.007.26056 0,.38876-.20146,3.97438-3.49528,7.13096-7.51972,7.13096-.39763,0-.78518-.0298-1.16628-.0889-1.18022.77023-2.59473,1.22182-4.10974,1.22182-1.46736,0-2.84111-.41758-3.99867-1.14406-.14723.009-.2948.0111-.4443.0111-4.15426,0-7.53083-3.36546-7.53083-7.51972 0-1.09424.24469-2.12976.66645-3.06565-.80373-1.19301-1.27735-2.61757-1.27735-4.16528 0-4.15426 3.37657-7.51972 7.53082-7.51972 .50712,0 .9993.0494 1.47729.1444 1.19854-.80636 2.63447-1.27736 4.18749-1.27736z" fill="#734b02" stroke="#000" stroke-width="1.06631"/>
<path d="m42.38965,224.85019c1.45113,0 2.80542.42148 3.95424,1.13296h.1c4.02444,0 7.31826,3.15658 7.51972,7.13096 .007.1282 0,.25894 0,.38876 0,1.08895-.23968,2.12051-.65534,3.05453 .8016,1.19593 1.26625,2.62739 1.26625,4.17639 0,.12982.007.26056 0,.38876-.20146,3.97438-3.49528,7.13096-7.51972,7.13096-.39763,0-.78518-.0299-1.16628-.0889-1.18022.77023-2.59473,1.22182-4.10974,1.22182-1.46736,0-2.84111-.41758-3.99867-1.14407-.14723.009-.2948.0111-.4443.0111-4.15426,0-7.53082-3.36545-7.53082-7.51972 0-1.09423.24468-2.12975.66644-3.06564-.80373-1.19301-1.27735-2.61757-1.27735-4.16528 0-4.15426 3.37657-7.51972 7.53082-7.51972 .50712,0 .9993.0494 1.47729.14439 1.19854-.80635 2.63447-1.27735 4.1875-1.27735z" fill="#3b2906"/>
<path d="m117.65063,227.48126c1.45114,0 2.80543.42148 3.95424,1.13296h.1c4.02444,0 7.31826,3.15658 7.51972,7.13096 .007.1282 0,.25894 0,.38876 0,1.08895-.23968,2.12051-.65534,3.05454 .8016,1.19592 1.26625,2.62738 1.26625,4.17638 0,.12982.007.26056 0,.38876-.20146,3.97438-3.49528,7.13096-7.51972,7.13096-.39763,0-.78518-.0298-1.16628-.0889-1.18022.77023-2.59473,1.22182-4.10974,1.22182-1.46736,0-2.84111-.41758-3.99867-1.14406-.14723.009-.2948.0111-.4443.0111-4.15426,0-7.53083-3.36546-7.53083-7.51972 0-1.09424.24469-2.12976.66645-3.06565-.80373-1.19301-1.27735-2.61757-1.27735-4.16528 0-4.15426 3.37657-7.51972 7.53082-7.51972 .50712,0 .9993.0494 1.47729.1444 1.19854-.80636 2.63447-1.27736 4.18749-1.27736z" fill="#734b02" stroke="#000" stroke-width="1.06631"/>
<path d="m119.55032,229.8824c1.45113,0 2.80542.42148 3.95424,1.13296h.1c4.02444,0 7.31826,3.15658 7.51972,7.13096 .007.1282 0,.25894 0,.38876 0,1.08895-.23968,2.12051-.65534,3.05453 .8016,1.19593 1.26625,2.62739 1.26625,4.17639 0,.12982.007.26056 0,.38876-.20146,3.97438-3.49528,7.13096-7.51972,7.13096-.39763,0-.78518-.0299-1.16628-.0889-1.18022.77023-2.59473,1.22182-4.10974,1.22182-1.46736,0-2.84111-.41758-3.99867-1.14407-.14723.009-.2948.0111-.4443.0111-4.15426,0-7.53082-3.36545-7.53082-7.51972 0-1.09423.24468-2.12975.66644-3.06564-.80373-1.19301-1.27735-2.61757-1.27735-4.16528 0-4.15426 3.37657-7.51972 7.53082-7.51972 .50712,0 .9993.0494 1.47729.14439 1.19854-.80635 2.63447-1.27735 4.1875-1.27735z" fill="#3b2906" fill-opacity=".507"/>
<path d="m282.04093,218.14619c1.46299,0 2.82833.26434 3.98651.71057h.10082c4.05728,0 7.37798,1.97974 7.58108,4.47239 .007.0804 0,.1624 0,.24382 0,.68297-.24163,1.32994-.66068,1.91574 .80814.75006 1.27658,1.64784 1.27658,2.61934 0,.0814.007.16342 0,.24382-.20311,2.49265-3.5238,4.47239-7.58109,4.47239-.40087,0-.79158-.0187-1.17579-.0557-1.18985.48307-2.61591.7663-4.14328.7663-1.47933,0-2.86429-.2619-4.0313-.71753-.14843.006-.29721.007-.44793.007-4.18816,0-7.59228-2.11075-7.59228-4.71621 0-.68629.24669-1.33574.67189-1.92272-.81029-.74823-1.28778-1.64168-1.28778-2.61237 0-2.60547 3.40413-4.71622 7.59228-4.71622 .51126,0 1.00745.031 1.48934.0906 1.20832-.50573 2.65597-.80113 4.22167-.80113z" fill="#734b02" stroke="#000" stroke-width=".8479"/>
<path d="m283.95613,219.65213c1.46297,0 2.82831.26435 3.98651.71057h.10081c4.05728,0 7.37798,1.97974 7.58109,4.47239 .007.0804 0,.1624 0,.24382 0,.68297-.24164,1.32994-.66069,1.91574 .80814.75006 1.27658,1.64785 1.27658,2.61935 0,.0814.007.16342 0,.24382-.2031,2.49265-3.5238,4.47239-7.58108,4.47239-.40088,0-.79159-.0187-1.1758-.0558-1.18985.48308-2.6159.7663-4.14328.7663-1.47933,0-2.86429-.26189-4.0313-.71753-.14843.006-.2972.007-.44792.007-4.18817,0-7.59228-2.11074-7.59228-4.71621 0-.68628.24668-1.33574.67188-1.92271-.81029-.74823-1.28777-1.64169-1.28777-2.61238 0-2.60546 3.40412-4.71621 7.59227-4.71621 .51126,0 1.00745.031 1.48935.0906 1.20832-.50573 2.65596-.80113 4.22167-.80113z" fill="#3b2906" fill-opacity=".507"/>
<path d="m90.75258,187.99512c1.46299,0 2.82833.26434 3.98651.71057h.10082c4.05728,0 7.37798,1.97974 7.58108,4.47239 .007.0804 0,.1624 0,.24382 0,.68297-.24163,1.32994-.66068,1.91574 .80814.75006 1.27658,1.64784 1.27658,2.61934 0,.0814.007.16342 0,.24382-.20311,2.49265-3.5238,4.47239-7.58109,4.47239-.40087,0-.79158-.0187-1.17579-.0557-1.18985.48307-2.61591.7663-4.14328.7663-1.47933,0-2.86429-.2619-4.0313-.71753-.14843.006-.29721.007-.44793.007-4.18816,0-7.59228-2.11075-7.59228-4.71621 0-.68629.24669-1.33574.67189-1.92272-.81029-.74823-1.28778-1.64168-1.28778-2.61237 0-2.60547 3.40413-4.71622 7.59228-4.71622 .51126,0 1.00745.031 1.48934.0906 1.20832-.50573 2.65597-.80113 4.22167-.80113z" fill="#734b02" stroke="#000" stroke-width=".8479"/>
<path d="m92.66778,189.50106c1.46297,0 2.82831.26435 3.98651.71057h.10081c4.05728,0 7.37798,1.97974 7.58109,4.47239 .007.0804 0,.1624 0,.24382 0,.68297-.24164,1.32994-.66069,1.91574 .80814.75006 1.27658,1.64785 1.27658,2.61935 0,.0814.007.16342 0,.24382-.2031,2.49265-3.5238,4.47239-7.58108,4.47239-.40088,0-.79159-.0187-1.1758-.0558-1.18985.48308-2.6159.7663-4.14328.7663-1.47933,0-2.86429-.26189-4.0313-.71753-.14843.006-.2972.007-.44792.007-4.18817,0-7.59228-2.11074-7.59228-4.71621 0-.68628.24668-1.33574.67188-1.92271-.81029-.74823-1.28777-1.64169-1.28777-2.61238 0-2.60546 3.40412-4.71621 7.59227-4.71621 .51126,0 1.00745.031 1.48935.0906 1.20832-.50573 2.65596-.80113 4.22167-.80113z" fill="#3b2906" fill-opacity=".507"/>
<path d="m215.58419,204.51323c2.25409,0 4.35772.40728 6.14218,1.09481h.15534c6.25122,0 11.36756,3.05027 11.68048,6.89079 .0108.12388 0,.25022 0,.37567 0,1.05228-.37229,2.04909-1.01794,2.95166 1.24514,1.15565 1.96688,2.53889 1.96688,4.03572 0,.12542.0108.25179 0,.37567-.31294,3.84053-5.42926,6.8908-11.6805,6.8908-.61763,0-1.21962-.0288-1.81159-.0858-1.83325.74428-4.03044,1.18067-6.38372,1.18067-2.27927,0-4.41313-.40352-6.21119-1.10553-.22869.009-.45793.0108-.69015.0108-6.45287,0-11.69774-3.25212-11.69774-7.26646 0-1.05739.38009-2.05803 1.03521-2.96241-1.24845-1.15283-1.98413-2.52941-1.98413-4.02499 0-4.01435 5.24488-7.26648 11.69774-7.26648 .78772,0 1.55222.0478 2.29469.1396 1.8617-.7792 4.09216-1.23434 6.5045-1.23434z" fill="#734b02" stroke="#000" stroke-width="1.3064"/>
<path d="m218.53501,206.8335c2.25406,0 4.3577.40729 6.14219,1.0948h.15532c6.25122,0 11.36756,3.05027 11.6805,6.8908 .0108.12387 0,.25022 0,.37566 0,1.05228-.37231,2.0491-1.01795,2.95166 1.24513,1.15565 1.96688,2.53891 1.96688,4.03574 0,.12542.0108.25179 0,.37567-.31293,3.84053-5.42927,6.8908-11.68049,6.8908-.61765,0-1.21963-.0288-1.8116-.086-1.83325.7443-4.03043,1.18067-6.38373,1.18067-2.27926,0-4.41313-.4035-6.21119-1.10553-.22869.009-.45791.0108-.69013.0108-6.45288,0-11.69774-3.25211-11.69774-7.26646 0-1.05738.38007-2.05803 1.03519-2.9624-1.24844-1.15283-1.98412-2.52942-1.98412-4.025 0-4.01434 5.24487-7.26646 11.69773-7.26646 .78772,0 1.55222.0478 2.2947.13959 1.86171-.7792 4.09215-1.23434 6.50451-1.23434z" fill="#3b2906" fill-opacity=".507"/>
<path d="m114.66863-476.5936c0,9.26406-12.15144,16.77407-27.141,16.77407s-27.141-7.51001-27.141-16.77407 12.15144-16.77406 27.141-16.77406 27.141,7.51 27.141,16.77406z" fill="url(#radialGradient3915)" stroke="#000" stroke-linecap="round" stroke-linejoin="round" stroke-width="2" transform="translate(16.39189,661.20903)"/>
<g transform="translate(-619.34508,349.21147)">
<path d="m729.94192-160.35678c4.92137,5.43054 10.58098,8.24346 10.58098,8.24346s-3.00208,13.34134-10.26574,16.98855c0,0-14.99583-28.8803-6.49569-35.66684 .00029.00086 1.83665,5.64151 6.18045,10.43483z" fill="url(#linearGradient3782-4)" stroke="#000" stroke-width=".8386"/>
<path d="m723.66544-171.10662c.30942.44389.27062,1.03391-.0878,1.3199-1.70444,1.35965-2.33331,3.77443-2.20298,6.94034 .13336,3.14335 1.05413,6.92521 2.29349,10.6352 1.42171,4.26703 3.25148,8.44814 4.7245,11.55365 .90357,1.90555 1.66778,3.40016 2.12427,4.27083 4.66261-2.85183 7.52419-10.31987 8.6102-13.99849 .38637-1.28138.56483-2.07591.56425-2.07764 .11117-.48974.57294-.73116 1.03106-.53772s.74424.74766.63335,1.23827c-.0601.0608-2.93328,13.53806-10.66046,17.51886-.39219.1969-.89902-.009-1.15115-.46829-.0163-.0343-4.53847-8.26683-7.47262-17.06346-1.27354-3.83204-2.25429-7.76956-2.40618-11.24624-.15562-3.45865.5451-6.56889 2.79257-8.36702 .0764-.0606.16111-.10354.25039-.12793 .32959-.09.71492.0628.95713.40974z" stroke="#000" stroke-width=".8386"/>
</g>
<g transform="matrix(.88577,.46412,-.46412,.88577,-635.34915,-9.82437)">
<path d="m729.94192-160.35678c4.92137,5.43054 10.58098,8.24346 10.58098,8.24346s-3.00208,13.34134-10.26574,16.98855c0,0-14.99583-28.8803-6.49569-35.66684 .00029.00086 1.83665,5.64151 6.18045,10.43483z" fill="url(#linearGradient3782-4)" stroke="#000" stroke-width=".8386"/>
<path d="m723.66544-171.10662c.30942.44389.27062,1.03391-.0878,1.3199-1.70444,1.35965-2.33331,3.77443-2.20298,6.94034 .13336,3.14335 1.05413,6.92521 2.29349,10.6352 1.42171,4.26703 3.25148,8.44814 4.7245,11.55365 .90357,1.90555 1.66778,3.40016 2.12427,4.27083 4.66261-2.85183 7.52419-10.31987 8.6102-13.99849 .38637-1.28138.56483-2.07591.56425-2.07764 .11117-.48974.57294-.73116 1.03106-.53772s.74424.74766.63335,1.23827c-.0601.0608-2.93328,13.53806-10.66046,17.51886-.39219.1969-.89902-.009-1.15115-.46829-.0163-.0343-4.53847-8.26683-7.47262-17.06346-1.27354-3.83204-2.25429-7.76956-2.40618-11.24624-.15562-3.45865.5451-6.56889 2.79257-8.36702 .0764-.0606.16111-.10354.25039-.12793 .32959-.09.71492.0628.95713.40974z" stroke="#000" stroke-width=".8386"/>
</g>
<g transform="matrix(.92703,.37499,-.37499,.92703,-639.07131,63.73239)">
<path d="m729.94192-160.35678c4.92137,5.43054 10.58098,8.24346 10.58098,8.24346s-3.00208,13.34134-10.26574,16.98855c0,0-14.99583-28.8803-6.49569-35.66684 .00029.00086 1.83665,5.64151 6.18045,10.43483z" fill="url(#linearGradient3782-4)" stroke="#000" stroke-width=".8386"/>
<path d="m723.66544-171.10662c.30942.44389.27062,1.03391-.0878,1.3199-1.70444,1.35965-2.33331,3.77443-2.20298,6.94034 .13336,3.14335 1.05413,6.92521 2.29349,10.6352 1.42171,4.26703 3.25148,8.44814 4.7245,11.55365 .90357,1.90555 1.66778,3.40016 2.12427,4.27083 4.66261-2.85183 7.52419-10.31987 8.6102-13.99849 .38637-1.28138.56483-2.07591.56425-2.07764 .11117-.48974.57294-.73116 1.03106-.53772s.74424.74766.63335,1.23827c-.0601.0608-2.93328,13.53806-10.66046,17.51886-.39219.1969-.89902-.009-1.15115-.46829-.0163-.0343-4.53847-8.26683-7.47262-17.06346-1.27354-3.83204-2.25429-7.76956-2.40618-11.24624-.15562-3.45865.5451-6.56889 2.79257-8.36702 .0764-.0606.16111-.10354.25039-.12793 .32959-.09.71492.0628.95713.40974z" stroke="#000" stroke-width=".8386"/>
</g>
<path d="m114.66863-476.5936c0,9.26406-12.15144,16.77407-27.141,16.77407s-27.141-7.51001-27.141-16.77407 12.15144-16.77406 27.141-16.77406 27.141,7.51 27.141,16.77406z" fill="url(#radialGradient3915)" stroke="#000" stroke-linecap="round" stroke-linejoin="round" stroke-width="2" transform="matrix(-1,0,0,1,349.84278,632.90857)"/>
<g transform="matrix(-1,0,0,1,985.57975,320.91101)">
<path d="m729.94192-160.35678c4.92137,5.43054 10.58098,8.24346 10.58098,8.24346s-3.00208,13.34134-10.26574,16.98855c0,0-14.99583-28.8803-6.49569-35.66684 .00029.00086 1.83665,5.64151 6.18045,10.43483z" fill="url(#linearGradient3782-4)" stroke="#000" stroke-width=".8386"/>
<path d="m723.66544-171.10662c.30942.44389.27062,1.03391-.0878,1.3199-1.70444,1.35965-2.33331,3.77443-2.20298,6.94034 .13336,3.14335 1.05413,6.92521 2.29349,10.6352 1.42171,4.26703 3.25148,8.44814 4.7245,11.55365 .90357,1.90555 1.66778,3.40016 2.12427,4.27083 4.66261-2.85183 7.52419-10.31987 8.6102-13.99849 .38637-1.28138.56483-2.07591.56425-2.07764 .11117-.48974.57294-.73116 1.03106-.53772s.74424.74766.63335,1.23827c-.0601.0608-2.93328,13.53806-10.66046,17.51886-.39219.1969-.89902-.009-1.15115-.46829-.0163-.0343-4.53847-8.26683-7.47262-17.06346-1.27354-3.83204-2.25429-7.76956-2.40618-11.24624-.15562-3.45865.5451-6.56889 2.79257-8.36702 .0764-.0606.16111-.10354.25039-.12793 .32959-.09.71492.0628.95713.40974z" stroke="#000" stroke-width=".8386"/>
</g>
<g transform="matrix(-.88577,.46412,.46412,.88577,1001.58382,-38.12483)">
<path d="m729.94192-160.35678c4.92137,5.43054 10.58098,8.24346 10.58098,8.24346s-3.00208,13.34134-10.26574,16.98855c0,0-14.99583-28.8803-6.49569-35.66684 .00029.00086 1.83665,5.64151 6.18045,10.43483z" fill="url(#linearGradient3782-4)" stroke="#000" stroke-width=".8386"/>
<path d="m723.66544-171.10662c.30942.44389.27062,1.03391-.0878,1.3199-1.70444,1.35965-2.33331,3.77443-2.20298,6.94034 .13336,3.14335 1.05413,6.92521 2.29349,10.6352 1.42171,4.26703 3.25148,8.44814 4.7245,11.55365 .90357,1.90555 1.66778,3.40016 2.12427,4.27083 4.66261-2.85183 7.52419-10.31987 8.6102-13.99849 .38637-1.28138.56483-2.07591.56425-2.07764 .11117-.48974.57294-.73116 1.03106-.53772s.74424.74766.63335,1.23827c-.0601.0608-2.93328,13.53806-10.66046,17.51886-.39219.1969-.89902-.009-1.15115-.46829-.0163-.0343-4.53847-8.26683-7.47262-17.06346-1.27354-3.83204-2.25429-7.76956-2.40618-11.24624-.15562-3.45865.5451-6.56889 2.79257-8.36702 .0764-.0606.16111-.10354.25039-.12793 .32959-.09.71492.0628.95713.40974z" stroke="#000" stroke-width=".8386"/>
</g>
<g transform="matrix(-.92703,.37499,.37499,.92703,1005.30599,35.43193)">
<path d="m729.94192-160.35678c4.92137,5.43054 10.58098,8.24346 10.58098,8.24346s-3.00208,13.34134-10.26574,16.98855c0,0-14.99583-28.8803-6.49569-35.66684 .00029.00086 1.83665,5.64151 6.18045,10.43483z" fill="url(#linearGradient3782-4)" stroke="#000" stroke-width=".8386"/>
<path d="m723.66544-171.10662c.30942.44389.27062,1.03391-.0878,1.3199-1.70444,1.35965-2.33331,3.77443-2.20298,6.94034 .13336,3.14335 1.05413,6.92521 2.29349,10.6352 1.42171,4.26703 3.25148,8.44814 4.7245,11.55365 .90357,1.90555 1.66778,3.40016 2.12427,4.27083 4.66261-2.85183 7.52419-10.31987 8.6102-13.99849 .38637-1.28138.56483-2.07591.56425-2.07764 .11117-.48974.57294-.73116 1.03106-.53772s.74424.74766.63335,1.23827c-.0601.0608-2.93328,13.53806-10.66046,17.51886-.39219.1969-.89902-.009-1.15115-.46829-.0163-.0343-4.53847-8.26683-7.47262-17.06346-1.27354-3.83204-2.25429-7.76956-2.40618-11.24624-.15562-3.45865.5451-6.56889 2.79257-8.36702 .0764-.0606.16111-.10354.25039-.12793 .32959-.09.71492.0628.95713.40974z" stroke="#000" stroke-width=".8386"/>
</g>
</g>
</svg>
