<?xml version="1.0" encoding="utf8" standalone="no"?>
<svg viewBox="0 0 744.09448819 1052.3622047" xmlns="http://www.w3.org/2000/svg" xmlns:xlink="http://www.w3.org/1999/xlink">
<defs>
<filter id="filter4120">
<feGaussianBlur stdDeviation="9.7614"/>
</filter>
<linearGradient id="linearGradient4043">
<stop offset="0" stop-color="#fff"/>
<stop offset="1" stop-color="#fff" stop-opacity="0"/>
</linearGradient>
<linearGradient id="linearGradient4033">
<stop offset="0" stop-color="#1a1a1a"/>
<stop offset="1" stop-color="#1a1a1a" stop-opacity="0"/>
</linearGradient>
<linearGradient gradientUnits="userSpaceOnUse" id="linearGradient4124" x1="634.88086" x2="644.98242" y1="197.01552" y2="175.54977">
<stop offset="0"/>
<stop offset="1" stop-opacity="0"/>
</linearGradient>
<linearGradient gradientUnits="userSpaceOnUse" id="linearGradient4128" x1="496.99506" x2="466.69049" y1="418.99655" y2="393.74274">
<stop offset="0" stop-color="#333"/>
<stop offset="1" stop-color="#333" stop-opacity="0"/>
</linearGradient>
<linearGradient gradientUnits="userSpaceOnUse" id="linearGradient4126" x1="664.68036" x2="650.79077" xlink:href="#linearGradient4043" y1="137.4165" y2="169.23631"/>
<linearGradient gradientUnits="userSpaceOnUse" id="linearGradient4130" x1="412.14224" x2="452.54834" xlink:href="#linearGradient4043" y1="382.63104" y2="411.92548"/>
<linearGradient gradientUnits="userSpaceOnUse" id="linearGradient4132" x1="241.42645" x2="212.13203" xlink:href="#linearGradient4033" y1="236.15892" y2="208.88481"/>
<linearGradient gradientUnits="userSpaceOnUse" id="linearGradient4134" x1="166.67517" x2="197.9899" xlink:href="#linearGradient4043" y1="200.80359" y2="226.0574"/>
<linearGradient gradientUnits="userSpaceOnUse" id="linearGradient4136" x1="625.29587" x2="558.15301" xlink:href="#linearGradient4033" y1="221.85711" y2="187.57139"/>
<radialGradient cx="209.18965" cy="708.22629" gradientTransform="matrix(1,0,0,.8277,0,122.02685)" gradientUnits="userSpaceOnUse" id="radialGradient4138" r="138.30283" xlink:href="#linearGradient4043"/>
<radialGradient cx="209.18965" cy="708.22629" gradientTransform="matrix(.80374,0,0,.6521,38.19773,247.81861)" gradientUnits="userSpaceOnUse" id="radialGradient4140" r="138.30283" xlink:href="#linearGradient4043"/>
</defs>
<g fill="#1a1a1a" filter="url(#filter4120)">
<g fill="#1a1a1a">
<path d="m613.1626,144.99266-6.31346,27.02158c16.35662,19.95025 43.94357,24.7065 71.46829,29.54696l11.61676-25.75889c-22.63695-15.37152-46.78772-28.12826-76.77159-30.80965z" fill="#1a1a1a"/>
<path d="m613.1626,144.99266-6.31346,27.02158c16.35662,19.95025 43.94357,24.7065 71.46829,29.54696l11.61676-25.75889c-22.63695-15.37152-46.78772-28.12826-76.77159-30.80965z" fill="#1a1a1a"/>
<path d="m613.1626,144.99266-6.31346,27.02158c16.35662,19.95025 43.94357,24.7065 71.46829,29.54696l11.61676-25.75889c-22.63695-15.37152-46.78772-28.12826-76.77159-30.80965z" fill="#1a1a1a"/>
</g>
<path d="m281.83256,665.47376c5.51465-19.02742 8.2818-38.05485 26.62072-57.08227 101.12174-115.7709 205.59953-228.18575 296.62809-354.04982 42.98377-10.47913 74.17603-31.62676 88.89343-67.68022 .63754-10.12289-1.66161-15.10658-9.09137-11.11168l-25.25382,23.23351c-16.98294,22.84011-44.51045,34.51539-72.73098,45.45687 2.22479-27.72091 4.70424-55.24172 19.94495-72.73583 1.89995-2.18086.71521-7.48889 3.03602-9.33907l.27165-4.29194 3.01135-13.38573c-1.3353.76579-4.667-.69627-5.95377.16086-23.51401,15.66292-38.80629,46.802-41.5234,101.61201-105.34705,110.21259-186.46509,230.80905-274.27383,348.53806-11.7927,24.69818-16.62058,47.65517-17.66026,69.6651z" fill="#1a1a1a"/>
<path d="m281.83256,665.47376c5.51465-19.02742 8.2818-38.05485 26.62072-57.08227 101.12174-115.7709 205.59953-228.18575 296.62809-354.04982 42.98377-10.47913 74.17603-31.62676 88.89343-67.68022 .63754-10.12289-1.66161-15.10658-9.09137-11.11168l-25.25382,23.23351c-16.98294,22.84011-44.51045,34.51539-72.73098,45.45687 2.22479-27.72091 4.70424-55.24172 19.94495-72.73583 1.89995-2.18086.71521-7.48889 3.03602-9.33907l.27165-4.29194 3.01135-13.38573c-1.3353.76579-4.667-.69627-5.95377.16086-23.51401,15.66292-38.80629,46.802-41.5234,101.61201-105.34705,110.21259-186.46509,230.80905-274.27383,348.53806-11.7927,24.69818-16.62058,47.65517-17.66026,69.6651z" fill="#1a1a1a"/>
<path d="m281.83256,665.47376c5.51465-19.02742 8.2818-38.05485 26.62072-57.08227 101.12174-115.7709 205.59953-228.18575 296.62809-354.04982 42.98377-10.47913 74.17603-31.62676 88.89343-67.68022 .63754-10.12289-1.66161-15.10658-9.09137-11.11168l-25.25382,23.23351c-16.98294,22.84011-44.51045,34.51539-72.73098,45.45687 2.22479-27.72091 4.70424-55.24172 19.94495-72.73583 1.89995-2.18086.71521-7.48889 3.03602-9.33907l.27165-4.29194 3.01135-13.38573c-1.3353.76579-4.667-.69627-5.95377.16086-23.51401,15.66292-38.80629,46.802-41.5234,101.61201-105.34705,110.21259-186.46509,230.80905-274.27383,348.53806-11.7927,24.69818-16.62058,47.65517-17.66026,69.6651z" fill="#1a1a1a"/>
<g fill="#1a1a1a" transform="translate(251.03205,185.42862)">
<path d="m251.91957,130.98683c-46.35605,52.27306-88.28685,106.43801-128.9375,161.15625 12.85092,5.59249 22.81109,13.14325 31.1875,21.71875 45.27985-51.83507 89.91363-104.34645 132.34375-159.03125-8.93724-10.86639-21.02288-18.1902-34.59375-23.84375z" fill="#1a1a1a"/>
<path d="m251.91957,130.98683c-46.35605,52.27306-88.28685,106.43801-128.9375,161.15625 12.85092,5.59249 22.81109,13.14325 31.1875,21.71875 45.27985-51.83507 89.91363-104.34645 132.34375-159.03125-8.93724-10.86639-21.02288-18.1902-34.59375-23.84375z" fill="#1a1a1a"/>
<path d="m251.91957,130.98683c-46.35605,52.27306-88.28685,106.43801-128.9375,161.15625 12.85092,5.59249 22.81109,13.14325 31.1875,21.71875 45.27985-51.83507 89.91363-104.34645 132.34375-159.03125-8.93724-10.86639-21.02288-18.1902-34.59375-23.84375z" fill="#1a1a1a"/>
</g>
<path d="m202.03051,593.75293c45.41342,45.1989 89.6581,94.78054 145.46197,101.01525-73.86375,88.72306-157.2134,142.95192-260.61936,124.24876-52.4076-110.69326 34.00823-166.94595 115.15739-225.26401z" fill="#1a1a1a"/>
<path d="m610.31372,152.19135c-28.28407,30.51687-30.64952,63.28917-28.3125,96.46875l4.875-4.84375c2.22033-27.64637 4.7059-55.08347 19.90625-72.53125 1.89995-2.18086.74169-7.46232 3.0625-9.3125l.25-4.3125 1.125-4.9375-.90625-.53125z" fill="#1a1a1a"/>
<path d="m202.03051,593.75293c45.41342,45.1989 89.6581,94.78054 145.46197,101.01525-73.86375,88.72306-157.2134,142.95192-260.61936,124.24876-52.4076-110.69326 34.00823-166.94595 115.15739-225.26401z" fill="#1a1a1a"/>
<path d="m200.57839,619.46722c36.50074,35.60987 72.06211,74.67268 116.91409,79.58469-59.36749,69.90032-126.35921,112.62443-209.47107,97.88918-42.12225-87.2095 27.33389-131.52809 92.55698-177.47387z" fill="#1a1a1a"/>
</g>
<g transform="translate(-11.42857,-21.42857)">
<path d="m613.1626,144.99266-6.31346,27.02158c16.35662,19.95025 43.94357,24.7065 71.46829,29.54696l11.61676-25.75889c-22.63695-15.37152-46.78772-28.12826-76.77159-30.80965z" fill="#803300"/>
<path d="m613.1626,144.99266-6.31346,27.02158c16.35662,19.95025 43.94357,24.7065 71.46829,29.54696l11.61676-25.75889c-22.63695-15.37152-46.78772-28.12826-76.77159-30.80965z" fill="url(#linearGradient4124)"/>
<path d="m613.1626,144.99266-6.31346,27.02158c16.35662,19.95025 43.94357,24.7065 71.46829,29.54696l11.61676-25.75889c-22.63695-15.37152-46.78772-28.12826-76.77159-30.80965z" fill="url(#linearGradient4126)"/>
<path d="m281.83256,665.47376c5.51465-19.02742 8.2818-38.05485 26.62072-57.08227 101.12174-115.7709 205.59953-228.18575 296.62809-354.04982 42.98377-10.47913 74.17603-31.62676 88.89343-67.68022 .63754-10.12289-1.66161-15.10658-9.09137-11.11168l-25.25382,23.23351c-16.98294,22.84011-44.51045,34.51539-72.73098,45.45687 2.22479-27.72091 4.70424-55.24172 19.94495-72.73583 1.89995-2.18086.71521-7.48889 3.03602-9.33907l.27165-4.29194 3.01135-13.38573c-1.3353.76579-4.667-.69627-5.95377.16086-23.51401,15.66292-38.80629,46.802-41.5234,101.61201-105.34705,110.21259-186.46509,230.80905-274.27383,348.53806-11.7927,24.69818-16.62058,47.65517-17.66026,69.6651z" fill="#999"/>
<path d="m281.83256,665.47376c5.51465-19.02742 8.2818-38.05485 26.62072-57.08227 101.12174-115.7709 205.59953-228.18575 296.62809-354.04982 42.98377-10.47913 74.17603-31.62676 88.89343-67.68022 .63754-10.12289-1.66161-15.10658-9.09137-11.11168l-25.25382,23.23351c-16.98294,22.84011-44.51045,34.51539-72.73098,45.45687 2.22479-27.72091 4.70424-55.24172 19.94495-72.73583 1.89995-2.18086.71521-7.48889 3.03602-9.33907l.27165-4.29194 3.01135-13.38573c-1.3353.76579-4.667-.69627-5.95377.16086-23.51401,15.66292-38.80629,46.802-41.5234,101.61201-105.34705,110.21259-186.46509,230.80905-274.27383,348.53806-11.7927,24.69818-16.62058,47.65517-17.66026,69.6651z" fill="url(#linearGradient4128)"/>
<path d="m281.83256,665.47376c5.51465-19.02742 8.2818-38.05485 26.62072-57.08227 101.12174-115.7709 205.59953-228.18575 296.62809-354.04982 42.98377-10.47913 74.17603-31.62676 88.89343-67.68022 .63754-10.12289-1.66161-15.10658-9.09137-11.11168l-25.25382,23.23351c-16.98294,22.84011-44.51045,34.51539-72.73098,45.45687 2.22479-27.72091 4.70424-55.24172 19.94495-72.73583 1.89995-2.18086.71521-7.48889 3.03602-9.33907l.27165-4.29194 3.01135-13.38573c-1.3353.76579-4.667-.69627-5.95377.16086-23.51401,15.66292-38.80629,46.802-41.5234,101.61201-105.34705,110.21259-186.46509,230.80905-274.27383,348.53806-11.7927,24.69818-16.62058,47.65517-17.66026,69.6651z" fill="url(#linearGradient4130)"/>
<g transform="translate(251.03205,185.42862)">
<path d="m251.91957,130.98683c-46.35605,52.27306-88.28685,106.43801-128.9375,161.15625 12.85092,5.59249 22.81109,13.14325 31.1875,21.71875 45.27985-51.83507 89.91363-104.34645 132.34375-159.03125-8.93724-10.86639-21.02288-18.1902-34.59375-23.84375z" fill="#520"/>
<path d="m251.91957,130.98683c-46.35605,52.27306-88.28685,106.43801-128.9375,161.15625 12.85092,5.59249 22.81109,13.14325 31.1875,21.71875 45.27985-51.83507 89.91363-104.34645 132.34375-159.03125-8.93724-10.86639-21.02288-18.1902-34.59375-23.84375z" fill="url(#linearGradient4132)"/>
<path d="m251.91957,130.98683c-46.35605,52.27306-88.28685,106.43801-128.9375,161.15625 12.85092,5.59249 22.81109,13.14325 31.1875,21.71875 45.27985-51.83507 89.91363-104.34645 132.34375-159.03125-8.93724-10.86639-21.02288-18.1902-34.59375-23.84375z" fill="url(#linearGradient4134)"/>
</g>
<path d="m202.03051,593.75293c45.41342,45.1989 89.6581,94.78054 145.46197,101.01525-73.86375,88.72306-157.2134,142.95192-260.61936,124.24876-52.4076-110.69326 34.00823-166.94595 115.15739-225.26401z" fill="#1a1a1a"/>
<path d="m610.31372,152.19135c-28.28407,30.51687-30.64952,63.28917-28.3125,96.46875l4.875-4.84375c2.22033-27.64637 4.7059-55.08347 19.90625-72.53125 1.89995-2.18086.74169-7.46232 3.0625-9.3125l.25-4.3125 1.125-4.9375-.90625-.53125z" fill="url(#linearGradient4136)"/>
<path d="m202.03051,593.75293c45.41342,45.1989 89.6581,94.78054 145.46197,101.01525-73.86375,88.72306-157.2134,142.95192-260.61936,124.24876-52.4076-110.69326 34.00823-166.94595 115.15739-225.26401z" fill="url(#radialGradient4138)"/>
<path d="m200.57839,619.46722c36.50074,35.60987 72.06211,74.67268 116.91409,79.58469-59.36749,69.90032-126.35921,112.62443-209.47107,97.88918-42.12225-87.2095 27.33389-131.52809 92.55698-177.47387z" fill="url(#radialGradient4140)"/>
</g>
</svg>
